<?xml version="1.0" encoding="utf-8"?>
<svg
  width="1139"
  height="919"
  xmlns="http://www.w3.org/2000/svg"
  enable-background="new 0 0 1139 919"
  version="1.1"
  xmlns:bx="https://boxy-svg.com"
>
  <defs>
    <bx:export>
      <bx:file format="svg" />
    </bx:export>
  </defs>
  <g>
    <title>Layer 1</title>
    <path
      id="svg_1"
      d="m1.00001,617c-0.00001,-205.26199 -0.00001,-410.52396 -0.00001,-616c199.69246,0 399.38498,0 599.4035,0.34082c-2.01709,1.38561 -4.56433,2.12428 -6.66815,3.52767c-9.61444,6.41326 -15.79834,15.48458 -20.16174,26.18959c-8.72345,0.28212 -16.98743,0.41677 -25.22125,0.98762c-11.77051,0.81606 -23.55799,1.62625 -35.26642,3.0353c-13.54724,1.63033 -27.04456,3.73692 -40.5138,5.94062c-25.52752,4.17654 -50.56408,10.52883 -74.99624,18.92274c-19.76569,6.79071 -39.32724,14.25884 -58.64856,22.22842c-11.70865,4.82952 -23.18863,10.52174 -34.02304,17.06538c-8.75934,5.29037 -9.6012,14.88701 -4.40784,22.31844c8.92825,12.77596 26.02924,18.33894 40.74814,15.9405c13.2066,-2.15205 24.44723,-8.93397 36.49118,-13.8324c17.59152,-7.15474 34.77475,-15.53894 52.78848,-21.37162c21.27023,-6.88712 43.16324,-11.93492 64.93973,-17.13771c10.39304,-2.4831 21.10205,-3.80998 31.73822,-5.06393c11.52533,-1.35878 23.13245,-2.02286 34.6203,-2.67112c-3.99225,4.57356 -8.12646,8.64641 -11.74524,13.13481c-3.547,4.39937 -7.50525,8.83316 -9.62549,13.94002c-4.28772,10.32755 -7.49566,21.10673 -11.06933,31.72645c-3.31568,9.85291 -6.63166,19.70888 -9.6698,29.64839c-0.43915,1.43685 0.67505,3.34849 1.07037,5.04039c1.60718,-1.02351 3.24487,-2.00418 4.7959,-3.10665c0.31085,-0.22095 0.27112,-0.91279 0.42816,-1.37561c5.99933,-17.68613 11.93408,-35.39467 18.06024,-53.03677c1.3122,-3.77903 2.74774,-7.75124 5.12323,-10.87688c5.2569,-6.91708 11.17816,-13.32683 16.76441,-19.99722c2.31598,-2.76547 6.7398,-3.21535 9.04596,1.05394c1.76519,3.26789 3.82537,6.55574 6.45678,9.11149c1.66565,1.6178 4.62128,1.90737 6.99842,2.79264c0.5097,-0.62035 1.0194,-1.24069 1.52917,-1.86103c-1.34344,-2.38185 -2.63226,-4.79658 -4.04358,-7.13749c-1.90137,-3.15387 -3.89709,-6.25089 -5.3905,-9.41944c11.2138,0.28275 21.98047,0.3668 32.71393,1.00767c12.11053,0.7231 24.30517,1.22886 36.25714,3.12702c16.60083,2.63646 33.09741,6.1021 49.48193,9.89023c30.39142,7.02653 59.4718,17.87221 87.85883,30.7769c10.65875,4.84546 21.75,8.92196 32.95312,12.33429c10.31946,3.14317 21.055,4.39883 31.73816,0.80809c10.61005,-3.56615 16.23535,-10.50077 16.49463,-19.71323c0.30487,-10.83263 -6.31781,-17.03539 -14.81219,-21.1124c-15.68732,-7.52942 -31.49286,-14.97481 -47.76374,-21.08525c-20.6239,-7.74521 -41.57629,-14.75765 -62.72693,-20.91926c-22.20544,-6.46887 -44.77642,-11.71355 -67.86987,-14.23348c-14.6051,-1.59368 -29.19324,-3.34296 -43.82324,-5.45325c-1,-13.7068 -4.15076,-25.71497 -18.05298,-31.48469c175.60144,0 351.20288,0 527,0c0,203.69246 0,407.38498 -0.38062,611.36987c-2.64221,-7.95331 -3.73107,-16.76422 -7.38159,-24.34076c-11.79333,-24.47625 -32.38122,-39.25769 -57.48059,-47.83062c-9.99792,-3.41486 -20.66003,-4.88514 -31.54309,-7.35962c0,75.67706 0,149.77411 0,223.86651c5.15344,-0.6314 10.23608,-0.82043 15.11035,-1.9273c19.87598,-4.51349 38.14685,-12.1236 53.69202,-26.0188c10.37463,-9.27332 18.25012,-19.90399 22.93103,-32.83283c2.21448,-6.11676 3.40051,-12.60602 5.05249,-18.92645c0,80.97882 0,161.9577 0,242.96826c-379.54639,0 -759.09274,0 -1139,0c0,-77.6604 0,-155.35309 0.37637,-233.34436c0.48623,1.35578 0.33888,3.0763 0.74435,4.65473c6.64859,25.88208 21.8164,45.02349 45.28254,57.86236c15.44255,8.44904 31.83423,13.16333 49.34578,14.43213c0,-74.87964 0,-149.64948 0,-225.02911c-8.60719,1.77948 -16.93746,3.16015 -25.08274,5.25885c-15.49107,3.99145 -29.33783,11.54681 -41.50991,21.74603c-9.59021,8.03577 -17.57619,17.70593 -22.12845,29.59778c-2.73153,7.13556 -4.71065,14.5592 -7.02794,21.85333m675.86859,242.29968c-6.86023,-8.97638 -23.4461,-9.80017 -29.35785,3.13001c-2.52936,5.53229 -3.74487,12.38147 -3.24127,18.43982c1.15832,13.93377 12.85132,21.94665 26.62854,14.6549c2.49988,-1.32312 4.5835,-3.4328 7.33539,-5.54486c-0.51148,2.90827 -0.91986,5.23023 -1.47138,8.36615c6.45655,-0.92621 12.29255,-1.76349 18.50892,-2.65527c-1.65937,-1.92566 -4.03321,-3.39795 -4.07746,-4.93713c-0.32123,-11.17011 -0.17261,-22.35376 -0.17261,-33.68427c1.20038,-0.67737 2.85694,-1.61218 4.85187,-2.73791c-6.57428,-0.70246 -12.52484,-1.33826 -18.76587,-2.00507c0.32965,2.23425 0.6518,4.41724 0.60761,6.99481c-0.10919,0.1424 -0.21845,0.28485 -0.84589,-0.02118m-157,0c-6.86011,-8.97638 -23.44613,-9.80011 -29.35782,3.13001c-2.52939,5.53235 -3.74472,12.38147 -3.24115,18.43982c1.15821,13.93414 12.85157,21.94647 26.62839,14.6549c2.49994,-1.32305 4.5835,-3.4328 7.33527,-5.54486c-0.51069,2.90387 -0.91944,5.22797 -1.47126,8.36597c6.45655,-0.92621 12.29255,-1.76343 18.50904,-2.65521c-1.65937,-1.92566 -4.03333,-3.39783 -4.07758,-4.93701c-0.32117,-11.17011 -0.17261,-22.35376 -0.17261,-33.68439c1.20032,-0.67737 2.85688,-1.61218 4.85163,-2.73786c-6.57404,-0.70245 -12.5246,-1.33825 -18.76563,-2.00506c0.32971,2.23431 0.6518,4.41724 0.60761,6.99487c-0.10919,0.1424 -0.21845,0.28485 -0.84589,-0.02118m-237.99978,0.00031c-6.85889,-8.97614 -23.44596,-9.80121 -29.35801,3.12958c-2.52942,5.53222 -3.7447,12.38146 -3.24122,18.43975c1.15799,13.93366 12.85127,21.94702 26.62837,14.65528c2.49994,-1.32312 4.58347,-3.43299 7.3352,-5.54492c-0.51065,2.90374 -0.91937,5.22784 -1.47122,8.36566c6.45667,-0.92621 12.2927,-1.76343 18.50916,-2.65522c-1.6612,-1.92761 -4.03363,-3.3988 -4.07779,-4.93682c-0.32086,-11.17011 -0.17243,-22.35376 -0.17243,-33.68421c1.20041,-0.67743 2.85691,-1.61224 4.8519,-2.73804c-6.57391,-0.70239 -12.52469,-1.33819 -18.7659,-2.00506c0.32975,2.23431 0.65192,4.4173 0.60779,6.99499c-0.10922,0.14246 -0.21841,0.28492 -0.84585,-0.02099m273.4078,1.02905c-0.11975,-0.13367 -0.2395,-0.26733 -0.28418,-1.20587c3.40845,-8.01447 1.09137,-19.133 12.36029,-23.388c-9.66113,0.61395 -19.32226,1.22784 -28.9834,1.84179c-0.18316,0.4433 -0.36633,0.88666 -0.5495,1.32996c5.73218,-0.05987 6.24152,3.19403 6.26874,7.52295c0.09381,14.90009 0.58942,29.79736 0.81299,44.69745c0.01392,0.92645 -0.80334,2.08636 -1.56793,2.75671c-1.5155,1.32862 -3.26447,2.39099 -6.14282,4.43329c8.49957,-0.7337 15.57623,-1.3446 22.03143,-1.90185c-0.41211,-3.539 -1.21881,-7.02088 -1.11237,-10.47467c0.11817,-3.83637 2.7536,-6.79889 6.44721,-6.72632c3.79858,0.0747 6.34723,2.89715 5.37781,7.12628c-0.90381,3.94336 -2.3512,7.76208 -3.60077,11.76874c7.23889,-0.44916 15.20892,-0.94373 23.17889,-1.43824c0.02973,-0.25988 0.05945,-0.51983 0.08923,-0.77978c-2.78253,-1.0625 -5.56506,-2.125 -8.07598,-3.0838c2.37127,-4.33728 5.19598,-8.39447 6.9212,-12.87512c4.49682,-11.67884 0.35943,-22.66755 -11.28223,-25.68622c-8.10754,-2.1023 -15.40191,0.94409 -21.88861,6.0827m-104.99994,-0.00006c-0.11981,-0.13367 -0.23962,-0.26733 -0.28424,-1.20575c3.40857,-8.01447 1.09125,-19.13318 12.36084,-23.38806c-9.66122,0.61395 -19.32245,1.22784 -28.98367,1.84179c-0.13233,0.40766 -0.26465,0.81537 -0.397,1.22303c5.42996,0.15143 6.10119,3.26513 6.12304,7.62976c0.07453,14.89996 0.58237,29.79736 0.80603,44.69751c0.01389,0.92645 -0.80337,2.08636 -1.56796,2.75665c-1.51556,1.32867 -3.26456,2.39111 -6.1431,4.43347c8.49976,-0.73358 15.5763,-1.34436 22.03165,-1.90155c-0.41214,-3.53918 -1.2189,-7.02106 -1.11252,-10.47485c0.11817,-3.8363 2.75336,-6.79907 6.44718,-6.72656c3.79888,0.07464 6.34686,2.89746 5.37795,7.12622c-0.90347,3.94336 -2.35092,7.76214 -3.66027,11.96069c3.38308,-0.38275 7.39517,-1.01062 11.43005,-1.24365c3.92743,-0.22681 7.87824,-0.0492 11.81876,-0.0492c0.02981,-0.37091 0.0596,-0.74182 0.08938,-1.11273c-2.78613,-1.06396 -5.57226,-2.12793 -8.08645,-3.08801c2.37124,-4.33722 5.19583,-8.39447 6.92108,-12.875c4.49695,-11.67877 0.35922,-22.66791 -11.28205,-25.68634c-8.10772,-2.10223 -15.402,0.94409 -21.8887,6.08258m406.72766,35.67877c0,0 -0.05865,-0.05639 -0.23297,0.68677c-0.76269,0.23956 -1.52533,0.47912 -1.88012,0.59057c13.66436,0 27.58422,0 42.92126,0c-1.95831,-1.24047 -2.57178,-1.92059 -3.27112,-2.0249c-4.59021,-0.68487 -7.38513,-2.41601 -6.71448,-7.91803c0.33612,-2.75714 -1.03143,-5.69299 -1.43597,-8.57507c-0.94757,-6.75043 -1.77905,-13.51715 -2.6543,-20.25238c4.59827,-1.4624 8.66803,-2.75671 14.02985,-4.46192c-20.34082,-0.46691 -39.49127,2.72718 -58.74591,-2.29302c0.41394,2.79803 0.73706,4.98223 0.69391,7.56109c-0.10919,0.1424 -0.21845,0.28485 -0.84589,-0.02118c-7.37158,-9.49402 -24.1972,-9.23266 -29.88965,3.92987c-2.81848,6.51715 -3.75354,13.12531 -2.19861,20.35309c2.18659,10.16388 9.61054,16.31977 19.72278,14.19452c4.79425,-1.00763 9.09198,-4.3775 13.42554,-6.58099c-0.2478,1.72039 -0.59528,4.13281 -1.0058,6.98327c6.53217,-0.76104 12.33515,-1.43719 18.08148,-2.17169m-39.92083,-320.93561c0,0 -0.05927,-0.05865 -0.33045,0.6529c-0.75476,0.23437 -1.50952,0.46881 -2.26428,0.70318c1.94116,0.57178 3.73315,0.60163 5.52393,0.56702c14.31927,-0.27704 28.6383,-0.56622 42.70129,-0.23016c-0.58197,0.78601 -1.16876,1.56848 -1.74512,2.35858c-4.6499,6.37487 -7.44476,14.76758 -17.20208,15.55529c-1.59229,0.12855 -3.14332,0.80677 -4.70636,1.25556c-22.05536,6.33307 -44.09492,12.72192 -66.16749,18.99451c-32.09045,9.1195 -64.20312,18.16095 -96.30932,27.22509c-10.47363,2.95697 -20.95679,5.88056 -31.56806,7.9668c0.66498,-4.66309 1.32996,-9.32611 2.6117,-14.27484c3.45715,-3.78015 6.91797,-7.55689 10.37085,-11.34094c10.36096,-11.35486 20.68951,-22.7395 31.0849,-34.06281c15.54919,-16.93713 31.16266,-33.81543 46.71393,-50.75079c10.50939,-11.44464 20.93365,-22.96741 31.44085,-34.41397c15.43567,-16.81555 30.92761,-33.57935 46.36444,-50.39377c10.50794,-11.44577 20.9408,-22.96036 31.44611,-34.4086c15.32031,-16.6954 30.64136,-33.39038 46.02814,-50.02445c9.78491,-10.57824 19.72656,-21.01162 29.51001,-31.59124c2.03375,-2.19928 3.67968,-4.7572 5.63421,-7.32013c-3.50512,-0.5773 -6.37933,-1.26261 -9.28967,-1.49536c-17.5686,-1.40476 -35.14685,-2.68775 -52.71905,-4.04798c-12.47474,-0.96573 -24.93866,-2.07788 -37.41877,-2.96383c-15.46515,-1.09781 -30.94232,-2.02387 -46.41351,-3.03632c-4.93622,-0.32297 -9.87726,-0.60226 -14.80328,-1.04416c-14.24555,-1.27792 -28.47864,-2.69629 -42.72785,-3.92996c-12.63061,-1.09363 -25.2749,-2.03183 -37.91571,-3.0058c-17.57263,-1.35397 -35.14905,-2.65927 -52.72119,-4.01993c-12.47479,-0.96597 -24.94312,-2.01458 -37.41797,-2.98034c-17.5722,-1.36026 -35.14368,-2.73307 -52.7232,-3.99353c-10.86194,-0.77878 -21.74451,-1.27179 -32.60526,-2.06482c-5.39398,-0.3938 -10.74676,-1.35932 -16.1412,-1.73825c-8.67954,-0.60975 -17.37815,-0.94776 -26.39615,-1.41764c13.20569,73.10025 26.26513,145.39105 39.32458,217.68183c0.336,0.03882 0.672,0.07763 1.00797,0.11639c2.95654,-7.86471 5.91308,-15.72946 9.59814,-23.58792c4.42206,2.13898 8.52112,2.96384 7.54096,10.61035c-1.99976,15.60031 -1.70899,31.49234 -2.4126,47.26187c-0.25574,5.73175 -0.63159,11.4588 -1.02051,17.18341c-0.05078,0.74646 -0.32007,1.63806 -0.80756,2.16919c-3.42163,3.72748 -6.92706,7.37793 -10.1838,10.15582c-1.13446,-13.65179 -2.26892,-27.30358 -3.48545,-41.94305c-7.38671,9.85754 -16.16244,16.94245 -27.73617,18.35217c-11.17047,1.3606 -22.37747,0.32929 -32.87766,-6.80151c4.83533,0 8.9755,0.36029 13.02765,-0.0835c6.26236,-0.68585 12.78333,-1.02612 18.62683,-3.10724c12.73795,-4.53643 22.24134,-12.95312 24.33353,-27.04888c2.13034,-14.35227 -7.57233,-25.38062 -21.24167,-31.76963c-11.22543,-5.24673 -23.14102,-5.3233 -35.13486,-4.9899c-11.69067,0.32496 -21.87448,4.65427 -30.35537,12.46817c-12.66089,11.6652 -17.8263,26.4628 -17.16788,43.54984c0.52029,13.50317 6.33032,24.17096 17.13406,31.9198c9.8985,7.09949 21.15161,9.75049 33.41696,10.25317c19.03046,0.77997 36.25126,-3.92639 52.46323,-14.18408c2.07486,3.72724 3.96893,7.28803 6.03037,10.74915c0.74765,1.25525 1.89517,2.27246 3.35788,4.06915c8.26031,-0.80402 16.52105,-1.60321 24.78076,-2.41339c7.61078,-0.74652 15.2204,-1.50482 22.82306,-1.55432c-9.32727,14.10107 -18.65448,28.20221 -28.79529,42.156c-9.94391,-2.92407 -20.26471,-4.09363 -29.68085,0.39508c-17.16125,8.18073 -23.3428,24.14582 -25.26462,41.60602c-1.29886,11.80072 -1.17627,23.95478 4.62485,35.61261c-2.90024,4.11621 -5.80044,8.23242 -8.83896,11.43067c-0.74392,-11.55457 -1.48785,-23.1092 -2.31283,-35.92237c-7.62391,10.20032 -16.3985,17.27051 -28.00156,18.67316c-11.17068,1.35034 -22.34729,0.27576 -32.84988,-6.80951c5.04458,0 9.36456,0.36926 13.59518,-0.08795c6.09683,-0.65875 12.44659,-1.04151 18.12384,-3.09949c12.69577,-4.60229 22.22498,-12.97186 24.29846,-27.08227c2.10523,-14.32679 -7.6101,-25.36615 -21.26526,-31.74714c-11.23263,-5.24902 -23.14105,-5.30859 -35.12991,-4.98022c-11.68756,0.32013 -21.86993,4.65552 -30.34564,12.47113c-12.49973,11.52631 -17.73807,26.12579 -17.16501,43.04053c0.46896,13.84228 6.25491,24.65497 17.54745,32.60199c9.75214,6.86297 20.5947,9.4978 32.48472,10.04382c19.17532,0.88062 36.62841,-3.68433 53.07339,-14.27258c2.12625,4.09997 4.12405,7.95233 5.86557,12.49194c-10.05716,14.96326 -20.11435,29.92657 -30.81924,45.85352c10.42514,-0.46997 19.50897,-0.70331 28.5661,-1.32581c17.24533,-1.18512 34.47268,-2.62854 51.71313,-3.8883c6.25757,-0.45728 12.53711,-0.61017 18.79614,-1.05042c18.23859,-1.28284 36.47095,-2.65338 54.70777,-3.961c5.42962,-0.38934 10.8692,-0.64142 16.29883,-1.0307c18.23675,-1.30768 36.47027,-2.66174 54.70703,-3.9693c5.42969,-0.38934 10.86932,-0.64142 16.29901,-1.03076c18.23675,-1.30756 36.47021,-2.6615 54.70697,-3.96918c5.42969,-0.38934 10.87329,-0.5979 16.29822,-1.03961c15.74035,-1.28168 31.47131,-2.6784 47.21222,-3.9527c9.19439,-0.74432 18.39666,-1.4057 27.60272,-1.98925c16.63,-1.05426 33.2666,-2.00458 49.89789,-3.03895c4.10522,-0.25531 8.21948,-0.53332 12.28753,-1.1018c0.99799,-0.13947 2.44446,-1.33966 2.62824,-2.26257c0.63855,-3.20728 0.776,-6.51148 1.17047,-9.7707c1.06323,-8.78649 2.11908,-17.57428 3.2561,-26.35138c1.19843,-9.25146 2.5221,-18.48669 3.72699,-27.73736c1.14307,-8.77515 2.15418,-17.56763 3.31214,-26.34076c1.52044,-11.5199 3.17163,-23.02252 4.68341,-34.54352c1.15155,-8.77557 2.12805,-17.57403 3.26519,-26.35162c1.19855,-9.25098 2.49152,-18.48981 3.75019,-27.73303c1.23651,-9.08075 2.54162,-18.15271 3.70495,-27.24274c0.99182,-7.74939 1.82508,-15.51904 2.72846,-23.27969c-4.72962,5.69101 -8.65387,11.4956 -12.52741,17.33386c-14.00061,21.1019 -27.98425,42.21506 -42.69336,63.13278c-5.94696,-1.43787 -9.73834,-4.0166 -9.4682,-11.33771c0.20453,-5.54175 -1.86773,-11.14355 -2.6864,-16.75372c-0.84057,-5.76032 -1.38922,-11.56317 -2.03863,-17.11633c5.11352,-1.75074 9.80914,-3.35846 14.50482,-4.96613c-22.84479,-0.69312 -45.55585,2.54907 -68.59345,-1.44903c0.73023,3.71783 1.39307,7.09307 2.28962,11.65795c-1.24885,-1.53991 -1.78107,-2.10199 -2.20698,-2.73559c-6.13818,-9.13135 -21.88,-10.32178 -29.24322,-4.61566c-8.03162,6.22393 -13.25067,24.50012 -9.09112,35.01336c4.04272,10.2182 9.14758,14.32312 19.8565,14.64283c8.31738,0.24835 13.70398,-4.41687 19.18677,-9.40778c0.11975,0.13367 0.2395,0.26733 0.28479,1.21808c-0.50055,2.63043 -1.00116,5.2608 -1.53571,8.07c7.56995,-0.61163 15.12189,-1.2218 22.61103,-1.8869m162.53247,-81.07586c-2.14899,0.67398 -4.31757,1.29159 -6.44367,2.03143c-11.33087,3.94296 -21.15613,17.36298 -21.15967,29.10461c-0.02423,79.97046 -0.04589,159.94092 0.04419,239.91126c0.00812,7.16455 2.58972,13.62128 7.49048,19.01623c12.73877,14.0235 29.07544,16.75922 46.28046,12.67652c19.02527,-4.51477 29.05603,-16.54663 29.09534,-34.07874c0.17651,-78.47058 0.1549,-156.94201 -0.09754,-235.41223c-0.01684,-5.26648 -1.70117,-10.93085 -4.0365,-15.71365c-8.13269,-16.65607 -34.07263,-23.4541 -51.17309,-17.53543m-791.61597,88.50372c0,-18.99481 0.226,-37.99329 -0.08012,-56.98315c-0.20118,-12.47919 -6.20739,-21.94425 -17.06652,-28.09861c-12.21237,-6.92129 -25.31608,-8.5148 -38.5959,-4.27408c-14.29282,4.56421 -26.33665,15.02662 -26.30823,33.86017c0.11993,79.47797 0.02771,158.95618 0.07426,238.43433c0.00746,12.72376 6.24227,22.04474 17.08668,28.05927c13.155,7.29595 26.9015,8.01715 41.17462,2.89483c13.62746,-4.89044 23.78955,-17.65045 23.761,-32.94238c-0.11194,-59.98328 -0.04579,-119.96692 -0.04579,-180.95038m50,-72.04309c0.89237,5.92755 0.91393,12.15289 2.8224,17.73291c10.22528,29.89655 37.38979,48.21234 67.95739,51.61224c25.17056,2.79962 49.03054,-2.44403 70.3331,-16.87567c3.05572,-2.07007 6.96066,-3.71509 5.97402,-8.96521c-1.0527,-5.60174 -1.47357,-11.32666 -2.07336,-17.00799c-0.73898,-7.00025 -0.63641,-14.19672 -2.32736,-20.95032c-1.08148,-4.31949 0.54831,-5.85227 3.21106,-8.04468c3.33361,-2.74478 6.35171,-5.8728 10.32489,-9.60452c-12.63556,-1.20972 -23.8255,-2.36118 -35.03134,-3.32877c-9.16565,-0.79141 -18.36682,-1.20642 -27.5116,-2.17282c-1.71371,-0.18115 -3.51587,-1.93429 -4.78671,-3.39017c-2.57071,-2.94497 -4.80518,-6.1835 -7.17826,-9.30099c-0.36514,0.16376 -0.73025,0.32751 -1.09536,0.49127c0.78418,17.97479 1.56836,35.94962 2.35254,53.92447c0.4472,0.35797 0.8944,0.716 1.34161,1.07397c2.77838,-13.66284 12.96628,-12.72302 22.70212,-12.75921c-2.00659,7.04004 -3.95389,14.17932 -6.14429,21.24316c-0.34927,1.12641 -1.70355,2.62726 -2.73828,2.7522c-15.82184,1.90906 -29.58365,-5.67993 -36.14096,-20.90289c-3.53897,-8.21576 -4.45142,-16.60056 -3.14725,-25.67279c3.8009,-26.44071 23.65128,-39.19388 49.00003,-34.82813c12.32401,2.12253 22.63053,8.67676 31.08212,17.95871c2.52936,2.77783 4.96231,5.64349 7.43943,8.4689c0.40853,-0.35852 0.81704,-0.71707 1.22555,-1.07559c-2.31726,-16.25754 -4.63452,-32.51507 -6.95175,-48.77258c-0.29883,-0.04202 -0.59769,-0.08405 -0.89652,-0.12607c-1.45513,3.71136 -2.91027,7.4227 -4.27276,10.89768c-5.66373,-2.37476 -10.8483,-5.18305 -16.38367,-6.75919c-23.42532,-6.67014 -46.84628,-5.99008 -69.99481,1.41971c-12.80969,4.10034 -24.73215,10.23932 -33.98943,20.11786c-10.8935,11.62457 -16.44592,25.60861 -15.10255,42.84451m736.4483,-297.57025c-4.23077,-0.96222 -8.45782,-2.72493 -12.69293,-2.7442c-15.96631,-0.0727 -23.81976,16.21522 -18.36017,29.47763c5.38379,13.07841 12.03565,25.63043 17.58026,38.64807c9.42108,22.11859 16.99195,44.89426 23.05219,68.17267c5.53882,21.27529 10.64874,42.63421 13.01416,64.53946c1.74225,16.13406 3.38989,32.27932 4.9256,48.43426c0.78149,8.22101 1.0437,16.465 8.81207,21.92578c6.58533,4.62918 13.50775,7.63123 21.34735,3.93225c7.74048,-3.65216 12.98181,-9.71808 12.79529,-18.70639c-0.41553,-20.03012 -0.80274,-40.08014 -2.07361,-60.06659c-0.88098,-13.85427 -2.03894,-27.88962 -5.16736,-41.35751c-5.17016,-22.25729 -11.29321,-44.36252 -18.37848,-66.08704c-7.73028,-23.7023 -18.98346,-46.00117 -31.62402,-67.47935c-3.75214,-6.37541 -5.53931,-14.25952 -13.23035,-18.68904m-817.38607,9.87459c-0.77544,1.95631 -1.27389,4.08503 -2.36802,5.843c-15.4602,24.84016 -27.49146,51.29306 -36.85642,78.95163c-9.09196,26.85229 -16.12757,54.23541 -18.7857,82.54492c-1.65986,17.67789 -2.75448,35.4097 -4.001,53.12445c-0.12302,1.74838 0.61999,3.54056 0.69377,5.32349c0.15781,3.81341 0.89721,7.81305 0.04483,11.4162c-2.075,8.77136 0.35426,16.1997 6.71235,21.74099c6.03068,5.25592 13.54207,7.40949 21.31031,3.21814c7.03842,-3.79751 13.19539,-8.7821 14.09701,-17.39352c1.04508,-9.98148 1.0513,-20.07468 2.17519,-30.04425c1.64541,-14.59601 3.77167,-29.14154 5.8945,-43.67917c3.50525,-24.00458 9.78905,-47.35123 16.92525,-70.496c8.87495,-28.78397 20.42204,-56.48447 33.76115,-83.44909c4.10255,-8.29319 1.32489,-17.14831 -3.4543,-23.16464c-7.46948,-9.40309 -28.3403,-10.66974 -36.14892,6.06385m192.93505,401.92955c-3.17608,-10.13971 -8.70285,-18.56348 -17.04458,-25.36969c-9.48017,-7.73499 -20.22431,-11.92719 -32.20545,-13.30231c-6.98907,-0.80212 -14.00817,-1.34088 -20.9993,-2.1272c-11.02606,-1.24017 -22.03951,-2.59222 -33.05906,-3.89056c-8.10327,-0.95471 -16.19824,-1.99268 -24.31481,-2.81757c-5.92866,-0.60248 -11.88645,-0.91852 -17.83128,-1.36224c6.27205,5.37591 12.64276,10.01489 19.36713,14.06689c3.81183,2.297 4.84801,5.25025 5.19461,9.39655c0.73309,8.7699 1.99205,17.49841 3.13977,26.23028c1.18753,9.03473 2.51002,18.05176 3.75258,27.07941c1.22117,8.87219 2.43982,17.74481 3.6148,26.62317c0.89496,6.76239 1.71987,13.53412 2.5551,20.13702c-12.89431,4.74201 -25.31909,9.31128 -37.74386,13.88062c0.91385,0.76465 1.67819,0.80835 2.43631,0.75824c14.93049,-0.98749 29.87278,-1.82984 44.78651,-3.02759c14.02179,-1.12598 28.15128,-1.81787 41.98352,-4.17011c17.67472,-3.00579 33.66886,-10.02673 45.55066,-24.42303c14.04218,-17.01385 15.11447,-36.38635 10.81735,-57.68188m494.99118,-450.17417c-6.66009,7.33194 -13.55865,14.46381 -19.9215,22.04523c-8.38727,9.99348 -6.91706,22.99733 0.87365,29.8391c4.56867,4.0122 9.28308,7.85911 13.83026,11.89489c9.61933,8.53743 19.07001,17.26755 28.78223,25.69692c8.75256,7.59643 20.10608,7.08096 28.16345,-1.29529c5.59406,-5.8154 10.76654,-12.03546 16.15003,-18.05448c11.43249,-12.78205 22.83868,-25.58792 34.33185,-38.31527c13.27722,-14.70311 26.59668,-29.36856 39.97595,-43.97876c7.0877,-7.73975 7.02484,-22.38321 -0.27265,-28.89369c-9.22491,-8.22996 -18.42462,-16.48817 -27.66198,-24.70404c-5.53705,-4.92474 -10.9245,-10.04871 -16.75226,-14.60603c-4.94208,-3.86474 -10.56287,-5.0328 -17.05292,-3.4176c-7.35474,1.83038 -11.42596,7.20469 -16.01446,12.31083c-7.39905,8.23379 -15.01673,16.27116 -22.41724,24.50367c-13.88556,15.4466 -27.68182,30.97345 -42.01441,46.97452m-86.98858,671.28647c-2.59088,-5.26025 1.05878,-7.84173 4.43603,-11.04852c-9.9942,1.48779 -19.9884,2.97552 -31.21008,4.64605c3.95001,1.25483 6.77838,2.15332 10.1308,3.21827c-0.45386,4.57715 -0.96704,9.12408 -1.34326,13.68243c-0.71497,8.66242 -1.00885,17.37689 -2.15253,25.97998c-0.65991,4.96436 0.12329,11.02997 -6.16998,13.7785c11.56738,0.73645 23.13482,1.47291 35.03167,2.23035c-0.8153,-1.2323 -1.29241,-1.95343 -1.98968,-3.00732c13.9519,-0.53534 27.36047,-1.04981 40.97009,-1.57202c-2.38727,-2.19526 -5.47247,-3.79712 -6.45691,-6.24427c-1.28552,-3.19531 -0.93109,-7.05774 -1.24127,-10.63672c-0.67889,-7.83465 -1.17291,-15.68927 -2.03882,-23.50287c-0.93139,-8.4057 -0.50738,-9.43823 7.24188,-13.36236c0.79853,-0.40442 1.53724,-0.92718 2.30372,-1.39508c-0.03895,-0.2923 -0.07795,-0.5846 -0.11689,-0.87689c-12.96899,0 -25.93805,0 -38.14642,0c1.2337,1.43341 4.17993,3.30865 4.09308,5.03094c-0.32648,6.4737 -1.64166,12.89752 -2.63507,19.6712c-2.69074,-0.98681 -4.71393,-1.56213 -6.57361,-2.47167c-1.1665,-0.5705 -2.79803,-1.50782 -2.98987,-2.51496c-0.6701,-3.51764 -0.80469,-7.1372 -1.14288,-11.60504m-337.7078,45.16138c2.09452,-1.90045 4.189,-3.80085 6.25162,-5.6723c0.59766,3.7207 1.12525,7.00518 1.65283,10.28973c0.26233,-0.00171 0.52463,-0.00348 0.78696,-0.00525c1.39578,-9.44055 2.79159,-18.88116 4.31461,-29.18225c-3.19388,1.59125 -5.1352,2.81482 -7.24567,3.55774c-4.72791,1.66418 -9.39194,3.11645 -14.41608,0.30829c-5.29111,-2.95734 -7.73172,-8.30109 -5.62933,-13.82373c1.93216,-5.0755 7.61102,-7.69538 13.19522,-5.32959c3.91263,1.65759 7.35907,4.41571 11.08362,6.72564c-1.32578,-6.90014 -2.72904,-14.20343 -4.39618,-22.88012c-1.25931,3.03125 -1.90765,4.59192 -2.49912,6.01556c-0.6954,0 -1.11941,0.13513 -1.34774,-0.01922c-18.59601,-12.57007 -50.29566,-1.80939 -51.33255,23.99951c-0.43747,10.88836 2.92151,19.56341 10.36789,26.36816c11.72662,10.71637 27.94653,7.98657 39.21392,-0.35217m-243.79637,-49.03931c-2.98088,-0.64172 -5.93503,-1.48303 -8.94778,-1.88666c-8.08672,-1.08349 -16.18749,-2.08838 -24.30419,-2.91272c-5.53057,-0.5617 -11.09735,-0.7669 -18.02959,-1.22229c9.47303,5.21277 12.01415,7.37506 12.6684,10.93512c0.5302,2.88483 0.75469,5.82581 1.11698,8.74164c1.4982,12.05847 2.99721,24.11688 4.47769,36.02857c-5.74526,2.04248 -11.32562,4.02636 -16.90599,6.01025c12.1113,-0.12036 24.15994,-0.44177 36.09303,-1.78766c8.866,-0.99994 17.65469,-3.56561 24.1143,-10.24365c12.08121,-12.48987 9.88126,-37.84833 -10.28285,-43.6626m19.00951,-693.95161c3.85139,-4.17606 7.42851,-8.65117 11.60084,-12.47725c19.81604,-18.17162 43.69027,-22.85289 69.5664,-20.19221c5.77584,0.5939 10.23116,-4.18957 8.50027,-9.80075c-2.22604,-7.21633 -5.52057,-9.59762 -15.56787,-9.39981c-10.52283,0.20718 -21.25533,0.09691 -31.49755,2.13179c-23.39334,4.64769 -42.50654,16.79854 -57.17541,35.86594c-10.47405,13.61475 -16.61615,29.03144 -19.70607,45.7106c-0.83711,4.51868 -1.05537,9.53946 0.05942,13.91808c1.01706,3.99472 4.83537,7.02362 9.50157,6.09859c2.49428,-0.49446 5.24127,-2.29686 6.76117,-4.33786c1.30493,-1.75234 1.11706,-4.67102 1.43585,-7.09413c1.93035,-14.67261 7.30251,-27.95331 16.52138,-40.42299m395.49472,705.14515c0.43555,7.79853 0.87103,15.59705 1.30066,23.29023c4.33905,-0.59748 2.33893,-8.60413 8.52142,-7.17926c-0.28882,4.94427 -0.76184,9.5075 -0.77722,14.0722c-0.02832,8.37274 6.38586,14.33911 14.81012,14.77313c7.71161,0.3974 14.59192,-1.61774 20.69781,-5.90143c2.21363,2.08796 4.09247,3.86017 6.956,6.5611c-1.31378,-7.83984 -2.4035,-14.34271 -3.49323,-20.84558c-0.68426,-0.28357 -1.36859,-0.56714 -2.05285,-0.85065c-1.13807,1.63104 -1.92823,3.90308 -3.49109,4.75128c-2.72083,1.47657 -6.26941,3.39997 -8.83124,2.72126c-3.56897,-0.94556 -4.88825,-5.01941 -4.59741,-8.87366c0.26703,-3.5387 0.89416,-7.05017 1.21203,-9.44086c7.17133,-4.29284 11.77131,-1.34784 15.57648,5.98877c0.52863,-9.39856 0.96051,-17.07629 1.45215,-25.81756c-5.09528,4.57995 -8.13007,10.10485 -15.13104,8.2323c-0.49421,-8.78357 2.57525,-15.23249 12.33246,-17.948c-12.69532,0 -24.28711,0 -35.87897,0c-0.07153,0.38989 -0.14307,0.77978 -0.2146,1.16967c3.172,1.2765 6.34399,2.55298 9.48169,3.81562c-1.27381,3.76379 -2.41376,7.61682 -3.92395,11.31878c-0.4961,1.21601 -1.78967,2.34742 -2.99915,2.987c-3.87481,2.04926 -6.38092,0.40302 -8.11938,-3.27954c-0.12793,-0.27118 -1.35675,-4.77856 -2.83069,0.4552m362.9668,-12.67614c-1.22882,-0.78418 -2.36274,-1.83716 -3.70148,-2.31019c-11.40363,-4.02856 -22.87116,-3.86578 -34.71777,-1.58428c-6.21125,1.19622 -12.24543,8.02484 -19.27595,0.68945c-0.20019,0.44006 -0.40038,0.88007 -0.60058,1.32013c3.10126,7.78857 6.20245,15.57715 9.55225,23.98993c1.23181,-1.61188 1.92273,-2.71454 2.80328,-3.63593c5.37048,-5.62012 9.85449,-12.1867 18.30456,-14.08142c6.21265,-1.39307 9.69422,0.01843 11.83484,5.60907c1.73969,4.54352 -1.97784,9.45465 -6.46808,10.53467c-5.14605,1.23767 -10.31805,2.36706 -15.61651,3.57483c-0.99481,5.12878 6.45257,12.33148 -5.53381,15.19623c12.75494,1.35211 23.53527,2.49487 34.31567,3.63769c-4.98963,-3.18591 -11.17651,-5.75421 -5.41657,-12.64575c4.06421,-0.94989 7.83667,-1.78754 11.58631,-2.71741c7.18091,-1.78058 11.08368,-6.89801 11.78912,-13.75842c0.61835,-6.01349 -3.11035,-10.37073 -8.85528,-13.8186m-710.92788,52.14325c1.13698,1.65173 2.27394,3.30346 3.41091,4.95514c0.2792,-0.05976 0.55842,-0.11951 0.83763,-0.17927c-0.46628,-5.992 -0.93254,-11.98407 -1.43942,-18.4981c-10.85349,11.36041 -19.02416,10.70843 -26.66027,4.98419c7.41243,0.83984 13.95821,-0.29425 19.73146,-4.80164c4.47438,-3.49341 7.55928,-11.79535 1.93901,-17.81714c-5.82478,-6.2409 -13.0043,-7.32599 -20.92947,-7.28961c-10.61931,0.04877 -17.8842,4.70905 -22.04044,14.48139c-3.34338,7.8612 -1.63238,16.09973 2.64203,21.87109c8.06734,10.89264 32.56038,9.38495 42.50856,2.29395m291.45845,-694.58583c-3.66558,-1.3014 -7.29895,-2.7044 -11.00488,-3.87833c-4.58154,-1.45128 -6.54004,-3.81212 -3.81354,-8.55544c0.78168,-1.35988 1.31964,-3.14123 1.18665,-4.66082c-0.11682,-1.33489 -1.32874,-2.57393 -2.05701,-3.85529c-1.28497,0.73067 -3.18939,1.15468 -3.73291,2.25244c-1.35309,2.73267 -2.4613,5.70683 -2.98358,8.70329c-0.84967,4.87415 1.74249,9.37293 6.18134,10.93801c21.58954,7.61223 43.20172,15.16118 64.84576,22.61696c4.96753,1.71118 10.19714,-1.01856 11.85242,-5.81234c7.6333,-22.10609 15.51434,-44.13203 22.73919,-66.37103c2.68909,-8.2774 7.13337,-16.22883 6.3169,-25.46345c-0.79669,-9.01046 -1.15833,-18.06487 -2.18793,-27.0453c-0.24792,-2.16238 -1.91827,-5.20104 -3.72595,-5.96562c-7.89923,-3.34111 -16.05567,-6.09788 -24.21985,-8.7564c-0.96075,-0.31287 -2.54468,1.28785 -3.83972,2.00148c0.88934,1.29077 1.50366,3.27207 2.71497,3.75465c5.72576,2.28114 11.56365,4.32121 17.46307,6.11287c4.20349,1.2766 6.09607,3.37219 5.909,8.11002c-0.23975,6.07001 0.70428,12.17714 0.82525,18.27447c0.07843,3.95198 0.40369,8.17391 -0.76977,11.82924c-5.7088,17.78336 -11.91651,35.40605 -17.88361,53.10719c-2.85351,8.46472 -5.5061,16.99726 -8.37128,25.45789c-1.07397,3.17143 -2.25421,5.9453 -6.8955,4.23959c-15.85083,-5.82513 -31.8202,-11.32766 -48.54902,-17.03408m-255.93338,-45.91614c3.58777,-2.99033 4.44538,-6.70886 2.36344,-10.80609c-1.86282,-3.66596 -4.63736,-6.34287 -9.20447,-6.2896c-4.68015,0.05459 -9.36224,-0.04344 -14.04208,0.02348c-9.33756,0.13353 -18.14408,2.7852 -26.12098,7.28119c-15.80845,8.91007 -26.46026,22.2853 -31.05122,39.93758c-1.34596,5.17528 -1.91278,10.88406 -1.25416,16.15042c0.57954,4.63399 5.16754,6.80481 9.70014,6.46741c3.95383,-0.29432 6.38108,-2.56266 7.21329,-7.23572c2.5723,-14.44406 8.72719,-27.08986 21.34983,-35.54907c9.94253,-6.66311 21.05943,-9.46752 33.02336,-9.06839c2.45495,0.08189 4.92443,-0.27318 8.02285,-0.91121m52.4762,688.79847c0.36633,-1.48712 0.7327,-2.97418 1.36011,-5.52111c-11.76322,3.33526 -22.49014,6.37664 -33.21704,9.41809c0.96148,1.14727 1.62173,1.20416 2.28283,1.21679c6.53205,0.12464 6.53315,0.12256 6.53373,6.6684c0.00091,10.32257 -0.52421,20.68109 0.18096,30.95526c0.48615,7.08295 -1.32669,11.60791 -8.36904,13.49359c-0.12619,0.03382 -0.13163,0.51874 -0.28369,1.19416c11.36721,-0.49744 22.61642,-0.98969 35.30645,-1.54505c-2.86566,-0.88055 -4.35855,-1.32049 -5.83917,-1.7984c-2.75275,-0.88849 -4.53738,-2.33252 -4.03159,-5.69092c0.89725,-5.95685 1.58246,-11.9458 2.33619,-17.92389c1.24313,-9.8601 2.47024,-19.72217 3.74026,-30.46692m670.37998,-3.88232c-11.60486,0 -23.20966,0 -34.24158,0c1.30926,0.69867 3.15979,2.05377 5.23175,2.71643c4.49487,1.43744 5.90411,4.22009 5.72931,8.89026c-0.17597,4.70117 0.77783,9.44446 1.23468,14.16956c0.6073,6.28161 3.62701,13.21563 -4.67182,17.09722c-0.38397,0.17969 -0.46783,1.00092 -0.42291,0.89594c10.84876,0 21.72235,0 32.59595,0c0.08111,-0.34876 0.16223,-0.69757 0.24334,-1.04633c-2.90399,-1.55188 -5.80804,-3.10376 -8.8385,-4.7232c2.39057,-11.30866 4.75245,-22.48169 7.10846,-33.62683c4.74939,-0.92273 9.46747,-1.8393 15.36243,-2.9845c-6.93927,-0.5249 -12.64832,-0.95679 -19.33111,-1.38855m-754.15174,-627.07721c4.00952,-0.94308 6.15587,-3.57652 7.66686,-7.35753c2.47105,-6.18336 6.91618,-10.27124 13.96901,-10.54625c5.67175,-0.22114 8.83212,-2.73239 9.09335,-7.4675c0.30228,-5.47944 -4.11176,-11.31555 -9.16476,-11.49586c-12.29456,-0.43872 -25.05747,5.59639 -30.31071,18.05127c-1.27252,3.01698 -2.22793,6.5663 -1.95022,9.75056c0.48715,5.58554 4.68919,8.14392 10.69647,9.06531m595.16657,295.07721c-6.08081,-0.22952 -12.12604,-0.15741 -17.59693,3.03757c-4.09021,2.38861 -4.23816,6.93759 0.0694,8.85556c10.44177,4.64935 21.1369,4.87219 31.62842,0.05761c1.48468,-0.68127 3.28491,-2.85601 3.1958,-4.22607c-0.1081,-1.66138 -1.75788,-4.08957 -3.28717,-4.62497c-4.19849,-1.46994 -8.68292,-2.12323 -14.00952,-3.0997m-270.51068,-340.60963c3.17761,-6.43947 6.41021,-12.85271 9.50707,-19.33074c1.32752,-2.77669 2.66462,-5.61488 3.40821,-8.57321c0.3147,-1.25163 -0.52136,-3.32155 -1.54114,-4.17766c-0.59497,-0.49942 -2.77545,0.39559 -3.88769,1.17182c-0.80994,0.56533 -1.03284,1.96548 -1.52894,2.98783c-3.84234,7.91816 -7.71301,15.82267 -11.52398,23.75585c-3.31391,6.89844 -6.72675,13.75909 -9.69537,20.80523c-0.57758,1.37096 0.10424,4.1657 1.2232,5.17556c2.45935,2.21937 3.64606,-0.16489 4.60828,-2.20041c2.99286,-6.33136 5.99292,-12.65933 9.43036,-19.61427m156.17205,395.6324c-1.22113,0.39843 -2.79156,0.45117 -3.59472,1.26306c-2.01856,2.04053 -4.51941,4.16968 -5.30475,6.73016c-1.14527,3.73377 2.37469,5.64954 5.19238,6.62195c5.94824,2.0528 12.20282,2.64685 17.92621,-0.62573c1.97186,-1.12744 4.37299,-3.65729 4.36273,-5.53437c-0.01196,-2.17773 -2.03198,-5.61047 -3.93909,-6.25567c-4.34057,-1.46845 -9.14508,-1.56568 -14.64276,-2.1994m247.51075,326.90405c-0.96772,1.41876 -1.93549,2.83752 -2.83069,4.15002c5.87042,6.25904 20.76934,8.42316 29.26422,4.22791c1.70398,-0.84155 3.84991,-3.35364 3.66119,-4.82178c-0.24328,-1.89349 -2.36841,-4.64398 -4.14044,-5.05542c-8.47443,-1.96735 -17.08838,-2.92371 -25.95428,1.49927m-48.13971,-2.92682c-4.85053,1.00336 -9.8573,1.55664 -14.49732,3.16669c-3.15002,1.09295 -2.91662,4.30646 -0.72503,6.38836c4.53106,4.30426 23.34655,4.80896 28.61261,1.05115c3.29388,-2.35034 3.09143,-6.47638 -0.7948,-7.92676c-3.70191,-1.38183 -7.75446,-1.82409 -12.59546,-2.67944m-52.81086,-33c4.61567,-0.63007 9.32965,-0.88922 13.79871,-2.07294c1.78784,-0.47351 3.92645,-2.83777 4.21997,-4.61914c0.1991,-1.20825 -2.27008,-3.57025 -4.00604,-4.26263c-8.68634,-3.46472 -17.43079,-3.29047 -25.83106,1.02856c-2.95727,1.52057 -2.80694,5.50739 0.3573,6.8526c3.34143,1.42066 7.00605,2.08106 11.46112,3.07355m-282.19336,-684.0255c-5.57269,-4.34851 -10.90936,-3.78769 -14.25085,1.49768c-3.00867,4.75873 -1.16278,12.32814 3.63818,14.91947c5.0434,2.72221 8.92115,2.08397 12.2356,-2.01383c3.11243,-3.84797 2.69293,-9.27823 -1.62293,-14.40332m-47.42327,-25.91018c-0.01136,1.32966 -0.49775,2.91537 0.05505,3.94097c1.65527,3.07108 3.11682,6.8158 5.7876,8.61112c2.70404,1.81764 6.5824,1.75328 9.92425,-0.80338c4.47889,-3.42663 4.02753,-8.26158 2.69019,-12.14279c-0.95349,-2.76689 -4.64655,-5.49702 -7.67682,-6.43452c-4.90106,-1.51633 -8.33692,1.71644 -10.78027,6.8286m-277.03928,71.76551c0.00021,1.16024 -0.05786,2.32395 0.01074,3.48012c0.28342,4.7762 4.12479,8.50809 8.89871,8.68939c5.13422,0.19501 8.20862,-2.17749 9.03144,-6.96957c0.65845,-3.83482 -2.96414,-9.76238 -6.67975,-10.92983c-5.32916,-1.67446 -9.14282,-0.01792 -11.26114,5.72989z"
      style="fill: rgba(255, 255, 255, 0)"
    />
    <path
      id="svg_2"
      d="m1140,676.53137c-1.65198,6.78906 -2.83801,13.27832 -5.05249,19.39508c-4.68091,12.92884 -12.5564,23.55951 -22.93103,32.83283c-15.54517,13.8952 -33.81604,21.50531 -53.69202,26.0188c-4.87427,1.10687 -9.95691,1.2959 -15.11035,1.9273c0,-74.0924 0,-148.18945 0,-223.86651c10.88306,2.47448 21.54517,3.94476 31.54309,7.35962c25.09937,8.57293 45.68726,23.35437 57.48059,47.83062c3.65052,7.57654 4.73938,16.38745 7.38159,24.80207c0.38062,21.18969 0.38062,42.21063 0.38062,63.70019z"
      style=""
    />
    <path
      id="svg_3"
      d="m1.00001,617.46863c2.31728,-7.76276 4.2964,-15.1864 7.02793,-22.32196c4.55226,-11.89185 12.53824,-21.56201 22.12845,-29.59778c12.17208,-10.19922 26.01884,-17.75458 41.50991,-21.74603c8.14528,-2.0987 16.47555,-3.47937 25.08274,-5.25885c0,75.37963 0,150.14947 0,225.02911c-17.51155,-1.2688 -33.90323,-5.98309 -49.34578,-14.43213c-23.46614,-12.83887 -38.63395,-31.98028 -45.28254,-57.86236c-0.40547,-1.57843 -0.25812,-3.29895 -0.74435,-5.11603c-0.37637,-22.85016 -0.37637,-45.53772 -0.37636,-68.69397z"
      style=""
    />
    <path
      id="svg_4"
      d="m580.08942,77.10448c1.9552,3.12143 3.95092,6.21845 5.85229,9.37232c1.41132,2.34091 2.70014,4.75564 4.04358,7.13749c-0.50977,0.62034 -1.01947,1.24068 -1.52917,1.86103c-2.37714,-0.88527 -5.33277,-1.17484 -6.99842,-2.79264c-2.63141,-2.55575 -4.69159,-5.8436 -6.45678,-9.11149c-2.30616,-4.26929 -6.72998,-3.81941 -9.04596,-1.05394c-5.58625,6.67039 -11.50751,13.08014 -16.76441,19.99722c-2.37549,3.12564 -3.81103,7.09785 -5.12323,10.87688c-6.12616,17.6421 -12.06091,35.35064 -18.06024,53.03677c-0.15704,0.46282 -0.11731,1.15466 -0.42816,1.37561c-1.55103,1.10247 -3.18872,2.08314 -4.7959,3.10665c-0.39532,-1.6919 -1.50952,-3.60354 -1.07037,-5.04039c3.03814,-9.93951 6.35412,-19.79548 9.6698,-29.64839c3.57367,-10.61972 6.78161,-21.3989 11.06933,-31.72645c2.12024,-5.10686 6.07849,-9.54065 9.62549,-13.94002c3.61878,-4.4884 7.75299,-8.56125 12.11029,-13.20995c1.77667,-1.06022 3.04132,-2.06672 4.44464,-2.32814c3.97986,-0.74137 4.6222,-2.40922 3.89838,-6.54846c-0.92554,-5.2928 -0.56476,-10.9321 0.02154,-16.3375c0.76478,-7.05193 2.29407,-14.02095 3.49445,-21.02565c3.89044,-10.75236 10.07434,-19.82368 19.68878,-26.23694c2.10382,-1.40339 4.65106,-2.14206 7.1294,-3.52767c3.82818,-0.34082 7.52105,-0.34082 11.67462,-0.34082c14.36285,5.76972 17.51361,17.77789 18.19501,31.66421c-2.11292,0.15981 -3.94159,-0.29069 -5.90223,-1.1017c-1.02795,-3.62044 -2.01465,-6.85859 -2.80359,-10.14422c-2.81231,-11.7131 -12.54516,-15.69397 -23.54016,-10.48924c-8.53167,4.03867 -12.6997,11.87459 -16.67773,20.23809c-4.63007,12.92818 -6.14252,25.90184 -3.96436,39.18476c0.37903,2.31131 1.47712,4.50471 2.24311,6.75258z"
      style=""
    />
    <path
      id="svg_5"
      d="m516.13007,490.00546c-2.95655,7.86475 -5.91309,15.7295 -8.86963,23.59421c-0.33597,-0.03876 -0.67197,-0.07757 -1.00797,-0.11639c-13.05945,-72.29078 -26.11889,-144.58158 -39.32458,-217.68183c9.018,0.46988 17.71661,0.80789 26.39615,1.41764c5.39444,0.37893 10.74722,1.34445 16.1412,1.73825c10.86075,0.79303 21.74332,1.28604 32.60526,2.06482c17.57952,1.26046 35.151,2.63327 52.7232,3.99353c12.47485,0.96576 24.94318,2.01437 37.41797,2.98034c17.57214,1.36066 35.14856,2.66596 52.72119,4.01993c12.64081,0.97397 25.2851,1.91217 37.91571,3.0058c14.24921,1.23367 28.4823,2.65204 42.72785,3.92996c4.92602,0.4419 9.86706,0.72119 14.80328,1.04416c15.47119,1.01245 30.94836,1.93851 46.41351,3.03632c12.48011,0.88595 24.94403,1.9981 37.41877,2.96383c17.5722,1.36023 35.15045,2.64322 52.71905,4.04798c2.91034,0.23275 5.78455,0.91806 9.28967,1.49536c-1.95453,2.56293 -3.60046,5.12085 -5.63421,7.32013c-9.78345,10.57962 -19.7251,21.013 -29.51001,31.59124c-15.38678,16.63407 -30.70783,33.32905 -46.02814,50.02445c-10.50531,11.44824 -20.93817,22.96283 -31.44611,34.4086c-15.43683,16.81442 -30.92877,33.57822 -46.36444,50.39377c-10.5072,11.44656 -20.93146,22.96933 -31.44085,34.41397c-15.55127,16.93536 -31.16474,33.81366 -46.71393,50.75079c-10.39539,11.32331 -20.72394,22.70795 -31.0849,34.06281c-3.45288,3.78405 -6.9137,7.56079 -10.75141,11.02258c1.88422,-19.8703 4.14899,-39.42218 6.48151,-59.55865c-23.07538,6.50286 -45.90753,12.93725 -68.73969,19.37158c0.00501,0.25152 0.00995,0.50305 0.01496,0.75458c5.62024,1.08581 11.24042,2.17157 17.99524,3.47656c0,15.01935 -0.00006,29.77166 0,44.52398c0.00012,18.14832 -0.09674,36.29773 0.09253,54.44404c0.0329,3.15521 -1.04657,4.80865 -3.65595,6.21118c-4.99774,2.68621 -9.8584,5.62756 -14.77594,8.46301c5.87714,0.71594 11.30994,0.17944 16.7558,-0.06403c17.40027,-0.77795 34.80573,-1.44098 52.20783,-2.17993c0.70593,-0.02997 1.39843,-0.37909 3.56317,-1.00006c-5.94373,-2.25757 -10.42755,-4.37036 -15.13965,-5.62872c-4.23767,-1.13178 -4.35065,-3.53638 -3.81653,-7.05103c1.11182,-7.31701 1.79346,-14.69891 2.88397,-22.01965c1.2096,-8.11914 2.67823,-16.19971 4.034,-24.29706c10.47888,-2.93884 20.96204,-5.86243 31.43567,-8.8194c32.1062,-9.06414 64.21887,-18.10559 96.30932,-27.22509c22.07257,-6.27259 44.11213,-12.66144 66.16749,-18.99451c1.56304,-0.44879 3.11407,-1.12701 4.70636,-1.25556c9.75732,-0.78771 12.55218,-9.18042 17.20208,-15.55529c0.57636,-0.7901 1.16315,-1.57257 2.13696,-2.79529c0.53693,-0.7572 0.68195,-1.07776 0.82691,-1.39832c13.99005,-21.109 27.97369,-42.22216 41.9743,-63.32406c3.87354,-5.83826 7.79779,-11.64285 12.52741,-17.33386c-0.90338,7.76065 -1.73664,15.5303 -2.72846,23.27969c-1.16333,9.09003 -2.46844,18.16199 -3.70495,27.24274c-1.25867,9.24322 -2.55164,18.48205 -3.75019,27.73303c-1.13714,8.77759 -2.11364,17.57605 -3.26519,26.35162c-1.51178,11.521 -3.16297,23.02362 -4.68341,34.54352c-1.15796,8.77313 -2.16907,17.56561 -3.31214,26.34076c-1.20489,9.25067 -2.52856,18.4859 -3.72699,27.73736c-1.13702,8.7771 -2.19287,17.56489 -3.2561,26.35138c-0.39447,3.25922 -0.53192,6.56342 -1.17047,9.7707c-0.18378,0.92291 -1.63025,2.1231 -2.62824,2.26257c-4.06805,0.56848 -8.18231,0.84649 -12.28753,1.1018c-16.63129,1.03437 -33.26789,1.98469 -49.89789,3.03895c-9.20606,0.58355 -18.40833,1.24493 -27.60272,1.98925c-15.74091,1.2743 -31.47187,2.67102 -47.21222,3.9527c-5.42493,0.44171 -10.86853,0.65027 -16.29822,1.03961c-18.23676,1.30768 -36.47022,2.66162 -54.70697,3.96918c-5.42969,0.38934 -10.86932,0.64142 -16.29901,1.03076c-18.23676,1.30756 -36.47028,2.66162 -54.70703,3.9693c-5.42963,0.38928 -10.86921,0.64136 -16.29883,1.0307c-18.23682,1.30762 -36.46918,2.67816 -54.70777,3.961c-6.25903,0.44025 -12.53857,0.59314 -18.79614,1.05042c-17.24045,1.25976 -34.4678,2.70318 -51.71313,3.8883c-9.05713,0.6225 -18.14096,0.85584 -28.5661,1.32581c10.70489,-15.92695 20.76208,-30.89026 31.31317,-46.16101c0.90457,-1.5702 1.31524,-2.83289 1.72589,-4.09559c2.90018,-4.11621 5.80038,-8.23242 9.1579,-12.53576c1.53689,1.28345 2.61782,2.75323 3.69601,4.22491c7.07211,9.65351 16.34931,14.72217 28.55875,14.38294c14.36682,-0.39923 25.20086,-7.28431 34.19574,-17.81372c1.61004,-1.88465 3.04467,-3.91919 4.5603,-5.88453c0.31372,0.18317 0.6275,0.36628 0.94128,0.54944c-1.73468,7.51697 -3.46936,15.03394 -5.38934,23.35407c13.31769,-1.83026 25.95953,-3.56763 39.79669,-5.4693c-3.31628,-2.62164 -5.85528,-4.41083 -8.11053,-6.50549c-1.09784,-1.0196 -2.26935,-2.56501 -2.37213,-3.94935c-0.53852,-7.25042 -0.7837,-14.52404 -1.05249,-21.79247c-0.15381,-4.15754 -0.05738,-8.32532 -0.24927,-12.48035c-0.59326,-12.84613 -1.27081,-25.68842 -1.90234,-38.26795c4.44549,-2.03656 8.42974,-3.86187 12.414,-5.68713c-0.07062,-0.2699 -0.14124,-0.5398 -0.2118,-0.80969c-12.18371,-1.33002 -24.36737,-2.66004 -37.42627,-4.08563c1.56367,7.68634 3.01941,14.84191 4.26398,20.95977c-6.87927,-5.88812 -13.95752,-11.94647 -21.0357,-18.00482c9.32727,-14.10107 18.65448,-28.20221 28.27215,-42.77173c0.7298,-1.1112 1.16931,-1.75403 1.75867,-2.71374c6.40411,-9.46106 12.65826,-18.6051 19.20093,-27.48218c4.5578,12.69122 0.3125,23.2843 -7.95038,34.03033c16.29242,-1.14904 31.39099,-2.21392 46.4895,-3.27887c0.10187,-0.53228 0.20374,-1.06457 0.3056,-1.59686c-4.62298,-1.7771 -9.24597,-3.55414 -14.04193,-5.39776c1.56226,-2.49707 2.96497,-4.55683 4.1861,-6.71906c12.72113,-22.52545 19.46173,-45.54266 5.77576,-70.52283c20.71411,-31.28286 41.2727,-62.24264 62.28265,-93.88217c-11.27887,1.22107 -21.54889,2.27353 -31.80335,3.45993c-10.08679,1.16699 -20.15008,2.53827 -30.23809,3.69361c-9.784,1.12057 -19.59558,2.00015 -29.37805,3.13302c-10.4087,1.20538 -20.77839,2.77548 -31.20221,3.8122c-5.89918,0.58667 -11.43238,1.0101 -11.97138,8.71322c-0.04285,0.61246 -0.56201,1.1785 -0.78387,1.79349c-7.62598,21.13724 -15.24292,42.2778 -23.24384,63.48734c-2.25238,0.47189 -4.12189,0.87436 -5.90878,1.259c1.52524,1.32898 2.95858,2.57794 4.392,3.8269z"
      fill="#D0417E"
    />
    <path
      id="svg_6"
      d="m980.03772,493.96252c16.67871,-5.88491 42.61865,0.91312 50.75134,17.56919c2.33533,4.7828 4.01966,10.44717 4.0365,15.71365c0.25244,78.47022 0.27405,156.94165 0.09754,235.41223c-0.03931,17.53211 -10.07007,29.56397 -29.09534,34.07874c-17.20502,4.0827 -33.54169,1.34698 -46.28046,-12.67652c-4.90076,-5.39495 -7.48236,-11.85168 -7.49048,-19.01623c-0.09008,-79.97034 -0.06842,-159.9408 -0.04419,-239.91126c0.00354,-11.74163 9.8288,-25.16165 21.15967,-29.10461c2.1261,-0.73984 4.29468,-1.35745 6.86542,-2.06519z"
      style=""
    />
    <path
      id="svg_7"
      d="m188,583c0,60.48346 -0.06615,120.4671 0.04579,180.45038c0.02855,15.29193 -10.13354,28.05194 -23.761,32.94238c-14.27312,5.12232 -28.01962,4.40112 -41.17462,-2.89483c-10.84441,-6.01453 -17.07922,-15.33551 -17.08668,-28.05927c-0.04655,-79.47815 0.04567,-158.95636 -0.07426,-238.43433c-0.02842,-18.83355 12.01541,-29.29596 26.30823,-33.86017c13.27982,-4.24072 26.38353,-2.64721 38.5959,4.27408c10.85913,6.15436 16.86534,15.61942 17.06652,28.09861c0.30612,18.98986 0.08012,37.98834 0.08012,57.48315m-57,20.5c0,0.83191 0,1.66376 0,2.49567c0.00003,19.96515 -0.04182,39.93048 0.0267,59.89544c0.01946,5.67041 4.21746,9.20075 10.42304,9.10889c5.73787,-0.08502 8.54835,-2.97131 8.54889,-8.80658c0.00288,-31.27875 0.06289,-62.55786 -0.1261,-93.83545c-0.01376,-2.27734 -1.27861,-5.18231 -2.95831,-6.67151c-2.81222,-2.49334 -6.64539,-3.48034 -10.27875,-1.48639c-3.55837,1.95282 -5.70697,4.97303 -5.66451,9.35077c0.09361,9.64893 0.02905,19.29932 0.02904,29.94916m19,-75.6438c-0.32648,-6.08612 -5.69984,-9.89337 -11.38614,-8.06757c-6.93857,2.22791 -9.87201,9.2179 -6.8947,16.4289c3.1214,7.56 11.57152,9.27612 16.44091,2.75293c1.85259,-2.48181 1.29762,-6.7608 1.83993,-11.11426z"
      style=""
    />
    <path
      id="svg_8"
      d="m580.55121,77.05737c-1.22778,-2.20076 -2.32587,-4.39416 -2.7049,-6.70547c-2.17816,-13.28292 -0.66571,-26.25658 4.42603,-39.15149c14.73041,0.10266 28.71112,0.41262 42.69183,0.72259c1.82862,0.45052 3.65729,0.90102 5.80451,1.17201c14.9143,1.49997 29.50244,3.24925 44.10754,4.84293c23.09345,2.51993 45.66443,7.76461 67.86987,14.23348c21.15064,6.16161 42.10303,13.17405 62.72693,20.91926c16.27088,6.11044 32.07642,13.55583 47.76374,21.08525c8.49438,4.07701 15.11706,10.27977 14.81219,21.1124c-0.25928,9.21246 -5.88458,16.14708 -16.49463,19.71323c-10.68316,3.59074 -21.4187,2.33508 -31.73816,-0.80809c-11.20312,-3.41233 -22.29437,-7.48883 -32.95312,-12.33429c-28.38703,-12.90469 -57.46741,-23.75037 -87.85883,-30.7769c-16.38452,-3.78813 -32.8811,-7.25377 -49.48193,-9.89023c-11.95197,-1.89816 -24.14661,-2.40392 -36.25714,-3.12702c-10.73346,-0.64087 -21.50013,-0.72492 -32.71393,-1.00766z"
      style=""
    />
    <path
      id="svg_9"
      d="m238,509.96594c-1.34337,-16.74493 4.20905,-30.72897 15.10255,-42.35354c9.25728,-9.87854 21.17974,-16.01752 33.98943,-20.11786c23.14853,-7.40979 46.56949,-8.08985 69.99481,-1.41971c5.53537,1.57614 10.71994,4.38443 16.38367,6.75919c1.36249,-3.47498 2.81763,-7.18632 4.27276,-10.89768c0.29883,0.04202 0.59769,0.08405 0.89652,0.12607c2.31723,16.25751 4.63449,32.51504 6.95175,48.77258c-0.40851,0.35852 -0.81702,0.71707 -1.22555,1.07559c-2.47712,-2.82541 -4.91007,-5.69107 -7.43943,-8.4689c-8.45159,-9.28195 -18.75811,-15.83618 -31.08212,-17.95871c-25.34875,-4.36575 -45.19913,8.38742 -49.00003,34.82813c-1.30417,9.07223 -0.39172,17.45703 3.14725,25.67279c6.55731,15.22296 20.31912,22.81195 36.14096,20.90289c1.03473,-0.12494 2.38901,-1.62579 2.73828,-2.7522c2.1904,-7.06384 4.1377,-14.20312 6.14429,-21.24316c-9.73584,0.03619 -19.92374,-0.90363 -22.70212,12.75921c-0.44721,-0.35797 -0.89441,-0.716 -1.34161,-1.07397c-0.78418,-17.97485 -1.56836,-35.94968 -2.35254,-53.92447c0.36511,-0.16376 0.73022,-0.32751 1.09536,-0.49127c2.37308,3.11749 4.60755,6.35602 7.17826,9.30099c1.27084,1.45588 3.073,3.20902 4.78671,3.39017c9.14478,0.9664 18.34595,1.38141 27.5116,2.17282c11.20584,0.96759 22.39578,2.11905 35.03134,3.32877c-3.97318,3.73172 -6.99128,6.85974 -10.32489,9.60452c-2.66275,2.19241 -4.29254,3.72519 -3.21106,8.04468c1.69095,6.7536 1.58838,13.95007 2.32736,20.95032c0.59979,5.68133 1.02066,11.40625 2.07336,17.00799c0.98664,5.25012 -2.9183,6.89514 -5.97402,8.96521c-21.30256,14.43164 -45.16254,19.67529 -70.3331,16.87567c-30.5676,-3.3999 -57.73211,-21.71569 -67.95739,-51.61224c-1.90847,-5.58002 -1.93003,-11.80536 -2.8224,-18.22388z"
      style=""
    />
    <path
      id="svg_10"
      d="m573.57361,31.05808c-0.72742,7.05205 -2.25671,14.02107 -3.02149,21.073c-0.5863,5.4054 -0.94708,11.0447 -0.02154,16.3375c0.72382,4.13924 0.08148,5.80709 -3.89838,6.54846c-1.40332,0.26142 -2.66797,1.26792 -4.36096,2.00936c-11.93658,1.04218 -23.5437,1.70626 -35.06903,3.06504c-10.63617,1.25395 -21.34518,2.58083 -31.73822,5.06393c-21.77649,5.20279 -43.6695,10.25059 -64.93973,17.13771c-18.01373,5.83268 -35.19696,14.21688 -52.78848,21.37162c-12.04395,4.89843 -23.28458,11.68035 -36.49118,13.8324c-14.7189,2.39844 -31.81989,-3.16454 -40.74814,-15.9405c-5.19336,-7.43143 -4.3515,-17.02807 4.40784,-22.31844c10.83441,-6.54364 22.31439,-12.23586 34.02304,-17.06538c19.32132,-7.96958 38.88287,-15.43771 58.64856,-22.22842c24.43216,-8.39391 49.46872,-14.7462 74.99624,-18.92274c13.46924,-2.2037 26.96656,-4.31029 40.5138,-5.94062c11.70843,-1.40905 23.49591,-2.21924 35.26642,-3.0353c8.23382,-0.57085 16.4978,-0.7055 25.22125,-0.98762z"
      style=""
    />
    <path
      id="svg_11"
      d="m974.82141,212.96152c7.31793,4.35466 9.1051,12.23877 12.85724,18.61418c12.64056,21.47818 23.89374,43.77705 31.62402,67.47935c7.08527,21.72452 13.20832,43.82975 18.37848,66.08704c3.12842,13.46789 4.28638,27.50324 5.16736,41.35751c1.27087,19.98645 1.65808,40.03647 2.07361,60.06659c0.18652,8.98831 -5.05481,15.05423 -12.79529,18.70639c-7.8396,3.69898 -14.76202,0.69693 -21.34735,-3.93225c-7.76837,-5.46078 -8.03058,-13.70477 -8.81207,-21.92578c-1.53571,-16.15494 -3.18335,-32.3002 -4.9256,-48.43426c-2.36542,-21.90525 -7.47534,-43.26417 -13.01416,-64.53946c-6.06024,-23.27841 -13.63111,-46.05408 -23.05219,-68.17267c-5.54461,-13.01764 -12.19647,-25.56966 -17.58026,-38.64807c-5.45959,-13.26241 2.39386,-29.55033 18.36017,-29.47763c4.23511,0.01927 8.46216,1.78198 13.06604,2.81906z"
      style=""
    />
    <path
      id="svg_12"
      d="m157.2385,222.42462c7.63235,-16.39696 28.50317,-15.13031 35.97265,-5.72722c4.77919,6.01633 7.55685,14.87145 3.4543,23.16464c-13.33911,26.96462 -24.8862,54.66512 -33.76115,83.44909c-7.1362,23.14477 -13.42,46.49142 -16.92525,70.496c-2.12283,14.53763 -4.24909,29.08316 -5.8945,43.67917c-1.12389,9.96957 -1.13011,20.06277 -2.17519,30.04425c-0.90162,8.61142 -7.05859,13.59601 -14.09701,17.39352c-7.76824,4.19135 -15.27963,2.03778 -21.31031,-3.21814c-6.35809,-5.54129 -8.78735,-12.96963 -6.71235,-21.74099c0.85238,-3.60315 0.11298,-7.60279 -0.04483,-11.4162c-0.07378,-1.78293 -0.81679,-3.57511 -0.69377,-5.32349c1.24652,-17.71475 2.34114,-35.44656 4.001,-53.12445c2.65813,-28.30951 9.69374,-55.69263 18.7857,-82.54492c9.36496,-27.65857 21.39622,-54.11147 36.85642,-78.95163c1.09413,-1.75797 1.59258,-3.88669 2.54429,-6.17963z"
      style=""
    />
    <path
      id="svg_13"
      d="m350.00201,625.11475c4.29239,20.87158 3.2201,40.24408 -10.82208,57.25793c-11.8818,14.3963 -27.87594,21.41724 -45.55066,24.42303c-13.83224,2.35224 -27.96173,3.04413 -41.98352,4.17011c-14.91373,1.19775 -29.85602,2.0401 -44.78651,3.02759c-0.75812,0.05011 -1.52246,0.00641 -2.43631,-0.75824c12.42477,-4.56934 24.84955,-9.13861 37.74386,-13.88062c-0.83523,-6.6029 -1.66014,-13.37463 -2.5551,-20.13702c-1.17498,-8.87836 -2.39363,-17.75098 -3.6148,-26.62317c-1.24256,-9.02765 -2.56505,-18.04468 -3.75258,-27.07941c-1.14772,-8.73187 -2.40668,-17.46038 -3.13977,-26.23028c-0.3466,-4.1463 -1.38278,-7.09955 -5.19461,-9.39655c-6.72437,-4.052 -13.09508,-8.69098 -19.36713,-14.06689c5.94483,0.44372 11.90262,0.75976 17.83128,1.36224c8.11657,0.82489 16.21154,1.86286 24.31481,2.81757c11.01955,1.29834 22.033,2.65039 33.05906,3.89056c6.99113,0.78632 14.01023,1.32508 20.9993,2.1272c11.98114,1.37512 22.72528,5.56732 32.20545,13.30231c8.34173,6.80621 13.8685,15.22998 17.04931,25.79364m-80.00708,15.15069c-1.05261,8.15412 -2.10522,16.30817 -3.3088,25.6319c13.74392,-8.38098 23.5607,-18.42688 24.06405,-33.92072c0.39627,-12.19751 -6.15283,-21.77026 -16.74838,-29.71533c-1.39444,12.91925 -2.69836,24.99964 -4.00687,38.00415z"
      style=""
    />
    <path
      id="svg_14"
      d="m529.58179,617.08801c7.48498,6.13196 14.56323,12.19031 21.4425,18.07843c-1.24457,-6.11786 -2.70031,-13.27343 -4.26398,-20.95977c13.0589,1.42559 25.24256,2.75561 37.42627,4.08563c0.07056,0.26989 0.14118,0.53979 0.2118,0.80969c-3.98426,1.82526 -7.96851,3.65057 -12.414,5.68713c0.63153,12.57953 1.30908,25.42182 1.90234,38.26795c0.19189,4.15503 0.09546,8.32281 0.24927,12.48035c0.26879,7.26843 0.51397,14.54205 1.05249,21.79247c0.10278,1.38434 1.27429,2.92975 2.37213,3.94935c2.25525,2.09466 4.79425,3.88385 8.11053,6.50549c-13.83716,1.90167 -26.479,3.63904 -39.79669,5.4693c1.91998,-8.32013 3.65466,-15.8371 5.38934,-23.35407c-0.31378,-0.18316 -0.62756,-0.36627 -0.94128,-0.54944c-1.51563,1.96534 -2.95026,3.99988 -4.5603,5.88453c-8.99488,10.52941 -19.82892,17.41449 -34.19574,17.81372c-12.20944,0.33923 -21.48664,-4.72943 -28.55875,-14.38294c-1.07819,-1.47168 -2.15912,-2.94146 -3.54227,-4.54425c-6.41214,-11.15136 -6.53473,-23.30542 -5.23587,-35.10614c1.92182,-17.4602 8.10337,-33.42529 25.26462,-41.60602c9.41614,-4.48871 19.73694,-3.31915 30.08759,-0.32141m5.04986,28.78357c-2.94159,-2.40863 -5.71966,-5.08148 -8.92456,-7.06457c-0.9599,-0.59394 -3.86468,0.21612 -4.59613,1.27166c-5.11688,7.38318 -3.41138,17.08606 3.80438,23.57074c6.56092,5.89618 14.54377,5.82483 22.71344,-0.85137c-4.1455,-5.44892 -8.3208,-10.93702 -12.99713,-16.92646z"
      style=""
    />
    <path
      id="svg_15"
      d="m509.86887,578.15515c-0.96506,-1.12579 -2.11258,-2.143 -2.86023,-3.39825c-2.06144,-3.46112 -3.95551,-7.02191 -6.03037,-10.74915c-16.21197,10.25769 -33.43277,14.96405 -52.46323,14.18408c-12.26535,-0.50268 -23.51846,-3.15368 -33.41696,-10.25317c-10.80374,-7.74884 -16.61377,-18.41663 -17.13406,-31.9198c-0.65842,-17.08704 4.50699,-31.88464 17.16788,-43.54984c8.48089,-7.8139 18.6647,-12.14321 30.35537,-12.46817c11.99384,-0.3334 23.90943,-0.25683 35.13486,4.9899c13.66934,6.38901 23.37201,17.41736 21.24167,31.76963c-2.09219,14.09576 -11.59558,22.51245 -24.33353,27.04888c-5.8435,2.08112 -12.36447,2.42139 -18.62683,3.10724c-4.05215,0.44379 -8.19232,0.0835 -13.02765,0.0835c10.50019,7.1308 21.70719,8.16211 32.87766,6.80151c11.57373,-1.40972 20.34946,-8.49463 27.73617,-18.35217c1.21653,14.63947 2.35099,28.29126 3.40754,42.35553c-0.07788,0.41248 -0.02829,0.35028 -0.02829,0.35028m-66.04349,-83.11417c-10.21771,2.97706 -17.9686,8.91141 -22.5791,18.67057c6.57745,4.29742 6.58185,4.12408 14.73568,4.3313c10.7782,0.27398 15.82316,-8.68787 13.71173,-18.45282c-0.45873,-2.12162 -1.25128,-5.4061 -5.86831,-4.54905z"
      style=""
    />
    <path
      id="svg_16"
      d="m470.08466,706.5177c-0.3415,1.72168 -0.75217,2.98437 -1.52863,4.21094c-2.36356,-3.88849 -4.36136,-7.74085 -6.48761,-11.84082c-16.44498,10.58825 -33.89807,15.1532 -53.07339,14.27258c-11.89002,-0.54602 -22.73258,-3.18085 -32.48472,-10.04382c-11.29254,-7.94702 -17.07849,-18.75971 -17.54745,-32.60199c-0.57306,-16.91474 4.66528,-31.51422 17.16501,-43.04053c8.47571,-7.81561 18.65808,-12.151 30.34564,-12.47113c11.98886,-0.32837 23.89728,-0.2688 35.12991,4.98022c13.65516,6.38099 23.37049,17.42035 21.26526,31.74714c-2.07348,14.11041 -11.60269,22.47998 -24.29846,27.08227c-5.67725,2.05798 -12.02701,2.44074 -18.12384,3.09949c-4.23062,0.45721 -8.5506,0.08795 -13.59518,0.08795c10.50259,7.08527 21.6792,8.15985 32.84988,6.80951c11.60306,-1.40265 20.37765,-8.47284 28.00156,-18.67316c0.82498,12.81317 1.56891,24.3678 2.38202,36.38135m-84.61725,-63.48541c-1.10819,1.87665 -2.2164,3.75323 -3.31894,5.6203c6.71603,4.37225 6.72024,4.1925 15.26938,4.39252c10.92202,0.25543 16.21542,-10.55036 12.63247,-20.02411c-1.19851,-3.16901 -3.08837,-3.47827 -6.06045,-2.60553c-7.31626,2.14843 -13.41431,5.9663 -18.52246,12.61682z"
      style=""
    />
    <path
      id="svg_17"
      d="m559.86951,571.9931c-0.43946,0.64276 -0.87897,1.28559 -1.60505,2.04499c-7.89678,0.86975 -15.5064,1.62805 -23.11718,2.37457c-8.25971,0.81018 -16.52045,1.60937 -25.0296,2.07794c-0.24881,-0.33545 -0.2984,-0.27325 -0.33146,-0.23712c3.44559,-3.63898 6.95102,-7.28943 10.37265,-11.01691c0.48749,-0.53113 0.75678,-1.42273 0.80756,-2.16919c0.38892,-5.72461 0.76477,-11.45166 1.02051,-17.18341c0.70361,-15.76953 0.41284,-31.66156 2.4126,-47.26187c0.98016,-7.64651 -3.1189,-8.47137 -7.90522,-10.61349c-1.79767,-1.25211 -3.23101,-2.50107 -4.75625,-3.83005c1.78689,-0.38464 3.6564,-0.78711 6.31344,-1.35117c13.77594,-1.67459 26.76441,-3.1875 40.19904,-4.75238c-2.61475,5.65293 -4.97382,10.75305 -7.61029,15.95642c-0.30768,0.63803 -0.33789,1.17273 -0.36816,1.70746c0.44079,-0.32522 0.88165,-0.65045 1.59289,-1.19702c3.70831,-2.64194 7.11719,-5.10489 10.58893,-7.47583c15.11737,-10.32413 38.59082,-12.73798 51.37555,1.96594c13.84149,24.65711 7.10089,47.67432 -5.62024,70.19977c-1.22113,2.16223 -2.62384,4.22199 -4.1861,6.71906c4.79596,1.84362 9.41895,3.62066 14.04193,5.39776c-0.10186,0.53229 -0.20373,1.06458 -0.3056,1.59686c-15.09851,1.06495 -30.19708,2.12983 -46.4895,3.27887c8.26288,-10.74603 12.50818,-21.33911 7.87439,-34.3609c-0.98255,-1.52362 -1.58643,-2.45977 -2.22119,-3.37433c-3.41065,-4.91387 -11.50373,-6.29809 -16.10956,-2.76196c-10.2525,7.87134 -10.74017,25.57062 -0.94409,34.26599z"
      style=""
    />
    <path
      id="svg_18"
      d="m645.08179,650.54718c-1.28961,8.52368 -2.75824,16.60425 -3.96784,24.72339c-1.09051,7.32074 -1.77215,14.70264 -2.88397,22.01965c-0.53412,3.51465 -0.42114,5.91925 3.81653,7.05103c4.7121,1.25836 9.19592,3.37115 15.13965,5.62872c-2.16474,0.62097 -2.85724,0.97009 -3.56317,1.00006c-17.4021,0.73895 -34.80756,1.40198 -52.20783,2.17993c-5.44586,0.24347 -10.87866,0.77997 -16.7558,0.06403c4.91754,-2.83545 9.7782,-5.7768 14.77594,-8.46301c2.60938,-1.40253 3.68885,-3.05597 3.65595,-6.21118c-0.18927,-18.14631 -0.09241,-36.29572 -0.09253,-54.44404c-0.00006,-14.75232 0,-29.50463 0,-44.52398c-6.75482,-1.30499 -12.375,-2.39075 -17.99524,-3.47656c-0.00501,-0.25153 -0.00995,-0.50306 -0.01496,-0.75458c22.83216,-6.43433 45.66431,-12.86872 68.73969,-19.37158c-2.33252,20.13647 -4.59729,39.68835 -6.78986,59.70147c-0.59283,5.12427 -1.25781,9.78729 -1.85656,14.87665z"
      style=""
    />
    <path
      id="svg_19"
      d="m845.23804,174.26283c14.08301,-15.74727 27.87927,-31.27412 41.76483,-46.72072c7.40051,-8.23251 15.01819,-16.26988 22.41724,-24.50367c4.5885,-5.10614 8.65972,-10.48045 16.01446,-12.31083c6.49005,-1.6152 12.11084,-0.44714 17.05292,3.4176c5.82776,4.55732 11.21521,9.68129 16.75226,14.60603c9.23736,8.21587 18.43707,16.47408 27.66198,24.70404c7.29749,6.51048 7.36035,21.15394 0.27265,28.89369c-13.37927,14.6102 -26.69873,29.27565 -39.97595,43.97876c-11.49317,12.72735 -22.89936,25.53322 -34.33185,38.31527c-5.38349,6.01902 -10.55597,12.23908 -16.15003,18.05448c-8.05737,8.37625 -19.41089,8.89172 -28.16345,1.29529c-9.71222,-8.42937 -19.1629,-17.15949 -28.78223,-25.69692c-4.54718,-4.03578 -9.26159,-7.88269 -13.83026,-11.89489c-7.79071,-6.84177 -9.26092,-19.84562 -0.87365,-29.8391c6.36285,-7.58142 13.26141,-14.71329 20.17108,-22.29903m29.30835,54.76622c8.1333,7.1193 16.26666,14.2386 24.36139,21.3241c25.74054,-28.66989 51.0512,-56.86095 76.78466,-85.52286c-20.94061,-18.79835 -41.52075,-37.2731 -62.42675,-56.0404c-25.75995,28.63795 -51.3675,57.10652 -76.88855,85.47894c12.58471,11.45447 25.1181,22.86217 38.16925,34.76022m46.84533,-122.9553c19.54346,17.69031 39.08692,35.38063 58.56079,53.00799c7.34851,-4.66252 7.86585,-14.85431 1.4361,-20.37588c-13.63196,-11.70649 -27.20471,-23.54169 -40.00555,-36.13349c-7.58063,-7.45674 -17.27423,-7.34536 -23.24713,1.0629c0.84619,0.76302 1.70391,1.53645 3.25579,2.43848m-54.87439,146.93838c1.77515,1.44443 3.60016,2.83214 5.31702,4.34279c8.7193,7.67215 14.80536,7.11234 21.6123,-1.90605c-20.60876,-18.51648 -41.208,-37.02445 -61.70813,-55.44338c-7.0935,5.46929 -7.18499,15.41048 -0.53631,20.98636c11.9848,10.05094 23.24451,20.96646 35.31512,32.02028z"
      fill="#666666"
    />
    <path
      id="svg_20"
      d="m863.57324,574.83441c0.21454,0.4162 0.06952,0.73676 -0.33929,1.18323c-14.58295,0.41138 -28.90198,0.70056 -43.22125,0.9776c-1.79078,0.03461 -3.58277,0.00476 -5.52393,-0.56702c0.75476,-0.23437 1.50952,-0.46881 2.78052,-1.07031c6.34448,-1.30566 8.93127,-4.5293 7.76361,-10.50366c-0.14948,-0.76483 0.15106,-1.61499 0.22723,-2.42706c0.97382,-10.37775 1.94476,-20.7558 2.92072,-31.17975c-3.74298,-1.39929 -7.01209,-2.76764 -10.37525,-3.8415c-4.16925,-1.33129 -7.89526,1.30915 -7.77527,5.53711c0.22876,8.0611 0.7237,16.11463 0.94251,24.17585c0.1814,6.68188 -1.52478,13.93329 6.17346,18.00811c-7.55194,0.61023 -15.10388,1.2204 -22.67383,1.83203c0.53455,-2.8092 1.03516,-5.43957 1.85047,-8.58184c0.34509,-1.04663 0.37536,-1.58149 0.40564,-2.11634c-0.44086,0.32508 -0.88178,0.65009 -1.32264,0.97516c-5.16534,5.42585 -10.55194,10.09107 -18.86932,9.84272c-10.70892,-0.31971 -15.81378,-4.42463 -19.8565,-14.64283c-4.15955,-10.51324 1.0595,-28.78943 9.09112,-35.01336c7.36322,-5.70612 23.10504,-4.51569 29.24322,4.61566c0.42591,0.6336 0.95813,1.19568 2.20698,2.73559c-0.89655,-4.56488 -1.55939,-7.94012 -2.28962,-11.65795c23.0376,3.9981 45.74866,0.75591 68.59345,1.44903c-4.69568,1.60767 -9.3913,3.21539 -14.50482,4.96613c0.64941,5.55316 1.19806,11.35601 2.03863,17.11633c0.81867,5.61017 2.89093,11.21197 2.6864,16.75372c-0.27014,7.32111 3.52124,9.89984 9.82776,11.43335m-80.31537,-37.7868c-3.87005,3.30566 -4.25616,7.7586 -1.03759,11.67969c3.02954,3.69073 8.13061,6.2171 13.47851,0.61132c-3.90075,-3.94989 -7.8374,-7.93609 -12.44092,-12.29101z"
      style=""
    />
    <path
      id="svg_21"
      d="m757.99994,846.24658c0.33813,4.02436 0.47272,7.64392 1.14282,11.16156c0.19184,1.00714 1.82337,1.94446 2.98987,2.51496c1.85968,0.90954 3.88287,1.48486 6.57361,2.47167c0.99341,-6.77368 2.30859,-13.1975 2.63507,-19.6712c0.08685,-1.72229 -2.85938,-3.59753 -4.09308,-5.03094c12.20837,0 25.17743,0 38.14642,0c0.03894,0.29229 0.07794,0.58459 0.11689,0.87689c-0.76648,0.4679 -1.50519,0.99066 -2.30372,1.39508c-7.74926,3.92413 -8.17327,4.95666 -7.24188,13.36236c0.86591,7.8136 1.35993,15.66822 2.03882,23.50287c0.31018,3.57898 -0.04425,7.44141 1.24127,10.63672c0.98444,2.44715 4.06964,4.04901 6.45691,6.24427c-13.60962,0.52221 -27.01819,1.03668 -40.97009,1.57202c0.69727,1.05389 1.17438,1.77502 1.98968,3.00732c-11.89685,-0.75744 -23.46429,-1.4939 -35.03167,-2.23035c6.29327,-2.74853 5.51007,-8.81414 6.16998,-13.7785c1.14368,-8.60309 1.43756,-17.31756 2.15253,-25.97998c0.37622,-4.55835 0.8894,-9.10528 1.34326,-13.68243c-3.35242,-1.06495 -6.18079,-1.96344 -10.1308,-3.21827c11.22168,-1.67053 21.21588,-3.15826 31.21008,-4.64605c-3.37725,3.20679 -7.02691,5.78827 -4.43597,11.492m13.00006,31.58692c0,-1.1507 0,-2.3014 0,-3.52893c-3.51813,0.68524 -6.7641,1.31756 -10.34753,2.01556c1.42419,6.70965 -1.56196,13.46942 1.92456,19.07922c7.97985,-3.61474 9.25506,-9.68261 8.42297,-17.56585z"
      style=""
    />
    <path
      id="svg_22"
      d="m840.08081,858.92621c-0.32318,-2.18421 -0.6463,-4.36841 -1.06024,-7.16644c19.25464,5.0202 38.40509,1.82611 58.74591,2.29302c-5.36182,1.70521 -9.43158,2.99952 -14.02985,4.46192c0.87525,6.73523 1.70673,13.50195 2.6543,20.25238c0.40454,2.88208 1.77209,5.81793 1.43597,8.57507c-0.67065,5.50202 2.12427,7.23316 6.71448,7.91803c0.69934,0.10431 1.31281,0.78443 3.27112,2.0249c-15.33704,0 -29.2569,0 -42.92126,0c0.35479,-0.11145 1.11743,-0.35101 2.35913,-0.94061c5.17791,-0.74359 6.58258,-3.60186 6.82128,-7.96661c0.4015,-7.33875 1.16315,-14.66272 1.95087,-21.97376c0.55567,-5.15673 -6.10889,-11.52673 -11.2243,-10.22754c-1.13275,0.28772 -2.5343,2.03913 -2.67005,3.24512c-0.36944,3.2832 -0.26849,6.6424 -0.10119,9.95874c0.45996,9.11658 -1.95545,18.79657 5.03393,26.68573c-5.80291,0.67609 -11.60589,1.35224 -18.13806,2.11328c0.41052,-2.85046 0.758,-5.26288 1.0058,-6.98327c-4.33356,2.20349 -8.63129,5.57336 -13.42554,6.58099c-10.11224,2.12525 -17.53619,-4.03064 -19.72278,-14.19452c-1.55493,-7.22778 -0.61987,-13.83594 2.19861,-20.35309c5.69245,-13.16253 22.51807,-13.42389 30.34003,-3.48578c0.78748,0.58716 1.12457,0.73029 1.46167,0.87342c-0.23322,-0.56366 -0.46649,-1.12732 -0.69983,-1.69098m-11.02881,15.41077c3.17737,2.08392 6.35218,4.24835 10.26538,-0.34943c-3.25677,-3.51874 -6.59131,-7.12146 -10.28906,-11.11658c-2.29578,4.5719 -3.22137,7.74689 0.02368,11.46601z"
      style=""
    />
    <path
      id="svg_23"
      d="m419.92517,891.00977c-10.90048,8.29345 -27.12039,11.02325 -38.84701,0.30688c-7.44638,-6.80475 -10.80536,-15.4798 -10.36789,-26.36816c1.03689,-25.8089 32.73654,-36.56958 51.33255,-23.99951c0.22833,0.15435 0.65234,0.01922 1.34774,0.01922c0.59147,-1.42364 1.23981,-2.98431 2.49912,-6.01556c1.66714,8.67669 3.0704,15.97998 4.39618,22.88012c-3.72455,-2.30993 -7.17099,-5.06805 -11.08362,-6.72564c-5.5842,-2.36579 -11.26306,0.25409 -13.19522,5.32959c-2.10239,5.52264 0.33822,10.86639 5.62933,13.82373c5.02414,2.80816 9.68817,1.35589 14.41608,-0.30829c2.11047,-0.74292 4.05179,-1.96649 7.24567,-3.55774c-1.52302,10.30109 -2.91883,19.7417 -4.31461,29.18225c-0.26233,0.00177 -0.52463,0.00354 -0.78696,0.00525c-0.52758,-3.28455 -1.05517,-6.56903 -1.65283,-10.28973c-2.06262,1.87145 -4.1571,3.77185 -6.61853,5.71759z"
      style=""
    />
    <path
      id="svg_24"
      d="m176.90468,841.9599c19.75514,5.77954 21.95509,31.138 9.87388,43.62787c-6.45961,6.67804 -15.2483,9.24371 -24.1143,10.24365c-11.93309,1.34589 -23.98173,1.6673 -36.09303,1.78766c5.58037,-1.98389 11.16073,-3.96777 16.90599,-6.01025c-1.48048,-11.91169 -2.97949,-23.9701 -4.47769,-36.02857c-0.36229,-2.91583 -0.58678,-5.85681 -1.11698,-8.74164c-0.65425,-3.56006 -3.19537,-5.72235 -12.6684,-10.93512c6.93224,0.45539 12.49902,0.66059 18.02959,1.22229c8.1167,0.82434 16.21747,1.82923 24.30419,2.91272c3.01275,0.40363 5.9669,1.24494 9.35675,1.92139m-13.78589,10.70752c-1.51193,-1.51141 -3.02387,-3.02283 -4.76376,-4.76215c-1.05931,9.79297 -2.02822,18.75031 -2.99538,27.69147c8.95811,-4.11731 12.25912,-12.97333 7.75914,-22.92932z"
      style=""
    />
    <path
      id="svg_25"
      d="m195.25134,148.23547c-8.96499,12.20777 -14.33715,25.48847 -16.2675,40.16108c-0.31879,2.42311 -0.13092,5.34179 -1.43585,7.09413c-1.5199,2.041 -4.26689,3.8434 -6.76117,4.33786c-4.6662,0.92503 -8.48451,-2.10387 -9.50157,-6.09859c-1.11479,-4.37862 -0.89653,-9.3994 -0.05942,-13.91808c3.08992,-16.67916 9.23202,-32.09585 19.70607,-45.7106c14.66887,-19.0674 33.78207,-31.21825 57.17541,-35.86594c10.24222,-2.03488 20.97472,-1.92461 31.49755,-2.13179c10.0473,-0.19781 13.34183,2.18348 15.56787,9.39981c1.73089,5.61118 -2.72443,10.39465 -8.50027,9.80075c-25.87613,-2.66068 -49.75036,2.02059 -69.5664,20.19221c-4.17233,3.82608 -7.74945,8.30119 -11.85472,12.73916m-23.35002,19.17919c-1.62929,6.77232 -3.48071,13.50416 -4.72798,20.34613c-0.3028,1.66102 1.38429,3.68478 2.1564,5.54175c1.73166,-1.5779 2.54398,-2.75173 2.59984,-3.9605c0.60851,-13.16962 4.81769,-25.37308 11.24838,-36.57641c12.0526,-20.99764 29.72629,-35.12447 53.30382,-41.89617c12.1908,-3.50133 24.49066,-2.62906 36.81284,-2.89433c1.8042,-0.03885 3.60122,-0.41107 5.40155,-0.62904c0.06158,-0.44047 0.12317,-0.88093 0.18472,-1.32139c-1.36252,-0.6778 -2.71411,-1.91571 -4.08939,-1.94257c-8.99856,-0.17579 -18.06588,-0.77612 -26.99122,0.05148c-19.64838,1.82188 -36.51012,10.38254 -50.95079,23.59707c-11.69629,10.70314 -19.46929,24.06563 -24.94817,39.68398z"
      fill="#666666"
    />
    <path
      id="svg_26"
      d="m450.59406,860.76392c6.16931,-5.57343 13.46359,-8.61975 21.57131,-6.51752c11.64127,3.01843 15.779,14.00757 11.28205,25.68634c-1.72525,4.48053 -4.54984,8.53778 -6.92108,12.875c2.51419,0.96008 5.30032,2.02405 8.08645,3.08801c-0.02978,0.37091 -0.05957,0.74182 -0.08938,1.11273c-3.94052,0 -7.89133,-0.17761 -11.81876,0.0492c-4.03488,0.23303 -8.04697,0.8609 -11.43005,1.24365c1.30935,-4.19855 2.7568,-8.01733 3.66027,-11.96069c0.96891,-4.22876 -1.57907,-7.05158 -5.37795,-7.12622c-3.69382,-0.07251 -6.32901,2.89026 -6.44718,6.72656c-0.10638,3.45379 0.70038,6.93567 1.11252,10.47485c-6.45535,0.55719 -13.53189,1.16797 -22.03165,1.90155c2.87854,-2.04236 4.62754,-3.1048 6.1431,-4.43347c0.76459,-0.67029 1.58185,-1.8302 1.56796,-2.75665c-0.22366,-14.90015 -0.7315,-29.79755 -0.80603,-44.69751c-0.02185,-4.36463 -0.69308,-7.47833 -6.12304,-7.62976c0.13235,-0.40766 0.26467,-0.81537 0.397,-1.22303c9.66122,-0.61395 19.32245,-1.22784 28.98367,-1.84179c-11.26959,4.25488 -8.95227,15.37359 -12.6759,23.89374c-0.34537,1.04052 -0.37567,1.57544 -0.40595,2.11023c0.44086,-0.32508 0.88175,-0.65015 1.32264,-0.97522z"
      style=""
    />
    <path
      id="svg_27"
      d="m555.59406,860.76398c6.16925,-5.57355 13.46362,-8.61994 21.57116,-6.51764c11.64166,3.01867 15.77905,14.00738 11.28223,25.68622c-1.72522,4.48065 -4.54993,8.53784 -6.9212,12.87512c2.51092,0.9588 5.29345,2.0213 8.07598,3.0838c-0.02978,0.25995 -0.0595,0.5199 -0.08923,0.77978c-7.96997,0.49451 -15.94,0.98908 -23.17889,1.43824c1.24957,-4.00666 2.69696,-7.82538 3.60077,-11.76874c0.96942,-4.22913 -1.57923,-7.05158 -5.37781,-7.12628c-3.69361,-0.07257 -6.32904,2.88995 -6.44721,6.72632c-0.10644,3.45379 0.70026,6.93567 1.11237,10.47467c-6.4552,0.55725 -13.53186,1.16815 -22.03143,1.90185c2.87835,-2.0423 4.62732,-3.10467 6.14282,-4.43329c0.76459,-0.67035 1.58185,-1.83026 1.56793,-2.75671c-0.22357,-14.90009 -0.71918,-29.79736 -0.81299,-44.69745c-0.02722,-4.32892 -0.53656,-7.58282 -6.26874,-7.52295c0.18317,-0.4433 0.36634,-0.88666 0.5495,-1.32996c9.66114,-0.61395 19.32227,-1.22784 28.9834,-1.84179c-11.26892,4.255 -8.95184,15.37353 -12.67535,23.89367c-0.3454,1.04053 -0.37567,1.57545 -0.40595,2.1103c0.44086,-0.32508 0.88178,-0.65009 1.32264,-0.97516z"
      style=""
    />
    <path
      id="svg_28"
      d="m591.00012,852.70325c1.47376,-4.8183 2.70258,-0.31092 2.83051,-0.03974c1.73846,3.68256 4.24457,5.3288 8.11938,3.27954c1.20948,-0.63958 2.50305,-1.77099 2.99915,-2.987c1.51019,-3.70196 2.65014,-7.55499 3.92395,-11.31878c-3.1377,-1.26264 -6.30969,-2.53912 -9.48169,-3.81562c0.07153,-0.38989 0.14307,-0.77978 0.2146,-1.16967c11.59186,0 23.18365,0 35.87897,0c-9.75721,2.71551 -12.82667,9.16443 -12.33246,17.948c7.00097,1.87255 10.03576,-3.65235 15.13104,-8.2323c-0.49164,8.74127 -0.92352,16.419 -1.45215,25.81756c-3.80517,-7.33661 -8.40515,-10.28161 -15.57648,-5.98877c-0.31787,2.39069 -0.945,5.90216 -1.21203,9.44086c-0.29084,3.85425 1.02844,7.9281 4.59741,8.87366c2.56183,0.67871 6.11041,-1.24469 8.83124,-2.72126c1.56286,-0.8482 2.35302,-3.12024 3.49109,-4.75128c0.68426,0.28351 1.36859,0.56708 2.05285,0.85065c1.08973,6.50287 2.17945,13.00574 3.49323,20.84558c-2.86353,-2.70093 -4.74237,-4.47314 -6.956,-6.5611c-6.10589,4.28369 -12.9862,6.29883 -20.69781,5.90143c-8.42426,-0.43402 -14.83844,-6.40039 -14.81012,-14.77313c0.01538,-4.5647 0.4884,-9.12793 0.77722,-14.0722c-6.18249,-1.42487 -4.18237,6.58178 -8.52142,7.17926c-0.42963,-7.69318 -0.86511,-15.4917 -1.30048,-23.70569z"
      style=""
    />
    <path
      id="svg_29"
      d="m283.08093,858.92627c-0.32214,-2.18298 -0.64431,-4.36597 -0.97406,-6.60028c6.24121,0.66687 12.19199,1.30267 18.7659,2.00506c-1.99499,1.1258 -3.65149,2.06061 -4.8519,2.73804c0,11.33045 -0.14843,22.5141 0.17243,33.68421c0.04416,1.53802 2.41659,3.00921 4.07779,4.93682c-6.21646,0.89179 -12.05249,1.72901 -18.50916,2.65522c0.55185,-3.13782 0.96057,-5.46192 1.47122,-8.36566c-2.75173,2.11193 -4.83526,4.2218 -7.3352,5.54492c-13.7771,7.29174 -25.47038,-0.72162 -26.62837,-14.65528c-0.50348,-6.05829 0.7118,-12.90753 3.24122,-18.43975c5.91205,-12.93079 22.49912,-12.10572 29.80838,-2.68555c0.78745,0.58697 1.12451,0.73004 1.46158,0.87305c-0.23328,-0.5636 -0.46655,-1.1272 -0.69983,-1.6908m-8.19632,6.44482c-1.13861,-0.46997 -2.27725,-0.94 -3.36578,-1.38934c-2.52454,4.29205 -2.21277,8.03796 1.52499,10.96228c2.87229,2.24719 6.01081,3.01514 9.05695,-0.78851c-2.22492,-2.72876 -4.46799,-5.47974 -7.21616,-8.78443z"
      style=""
    />
    <path
      id="svg_30"
      d="m521.08081,858.92621c-0.32214,-2.18298 -0.64423,-4.36591 -0.97394,-6.60022c6.24103,0.66681 12.19159,1.30261 18.76563,2.00506c-1.99475,1.12568 -3.65131,2.06049 -4.85163,2.73786c0,11.33063 -0.14856,22.51428 0.17261,33.68439c0.04425,1.53918 2.41821,3.01135 4.07758,4.93701c-6.21649,0.89178 -12.05249,1.729 -18.50904,2.65521c0.55182,-3.138 0.96057,-5.4621 1.47126,-8.36597c-2.75177,2.11206 -4.83533,4.22181 -7.33527,5.54486c-13.77682,7.29157 -25.47018,-0.72076 -26.62839,-14.6549c-0.50357,-6.05835 0.71176,-12.90747 3.24115,-18.43982c5.91169,-12.93012 22.49771,-12.10639 29.8082,-2.68598c0.78748,0.58716 1.12457,0.73029 1.46167,0.87348c-0.23328,-0.56366 -0.46655,-1.12732 -0.69983,-1.69098m-7.6897,6.99945c-1.23492,-0.6853 -2.46991,-1.37061 -3.66757,-2.03522c-2.93207,3.99188 -2.32648,7.87207 0.75766,10.67383c2.57654,2.34064 6.16931,3.97638 9.55853,-0.29767c-1.97198,-2.53845 -4.03167,-5.18982 -6.64862,-8.34094z"
      style=""
    />
    <path
      id="svg_31"
      d="m678.08081,858.92621c-0.32214,-2.18292 -0.64429,-4.36591 -0.97394,-6.60016c6.24103,0.66681 12.19159,1.30261 18.76587,2.00507c-1.99493,1.12573 -3.65149,2.06054 -4.85187,2.73791c0,11.33051 -0.14862,22.51416 0.17261,33.68427c0.04425,1.53918 2.41809,3.01147 4.07746,4.93713c-6.21637,0.89178 -12.05237,1.72906 -18.50892,2.65527c0.55152,-3.13592 0.9599,-5.45788 1.47138,-8.36615c-2.75189,2.11206 -4.83551,4.22174 -7.33539,5.54486c-13.77722,7.29175 -25.47022,-0.72113 -26.62854,-14.6549c-0.5036,-6.05835 0.71191,-12.90753 3.24127,-18.43982c5.91175,-12.93018 22.49762,-12.10639 29.80823,-2.68592c0.78748,0.58716 1.12457,0.73029 1.46167,0.87342c-0.23328,-0.56366 -0.46655,-1.12732 -0.69983,-1.69098m-8.19623,6.44482c-1.13861,-0.46997 -2.27728,-0.93988 -3.37597,-1.39337c-2.49366,4.29309 -2.19666,8.04224 1.53564,10.96607c2.87079,2.24908 6.01038,3.01513 9.0564,-0.78791c-2.22492,-2.72894 -4.46796,-5.47998 -7.21607,-8.78479z"
      style=""
    />
    <path
      id="svg_32"
      d="m954.24963,840.69141c5.46204,3.19903 9.19074,7.55627 8.57239,13.56976c-0.70544,6.86041 -4.60821,11.97784 -11.78912,13.75842c-3.74964,0.92987 -7.5221,1.76752 -11.58631,2.71741c-5.75994,6.89154 0.42694,9.45984 5.41657,12.64575c-10.7804,-1.14282 -21.56073,-2.28558 -34.31567,-3.63769c11.98638,-2.86475 4.539,-10.06745 5.53381,-15.19623c5.29846,-1.20777 10.47046,-2.33716 15.61651,-3.57483c4.49024,-1.08002 8.20777,-5.99115 6.46808,-10.53467c-2.14062,-5.59064 -5.62219,-7.00214 -11.83484,-5.60907c-8.45007,1.89472 -12.93408,8.4613 -18.30456,14.08142c-0.88055,0.92139 -1.57147,2.02405 -2.80328,3.63593c-3.3498,-8.41278 -6.45099,-16.20136 -9.55225,-23.98993c0.2002,-0.44006 0.40039,-0.88007 0.60058,-1.32013c7.03052,7.33539 13.0647,0.50677 19.27595,-0.68945c11.84661,-2.2815 23.31414,-2.44428 34.71777,1.58428c1.33874,0.47303 2.47266,1.52601 3.98437,2.55903z"
      style=""
    />
    <path
      id="svg_33"
      d="m242.74499,892.36432c-9.65431,7.3125 -34.14735,8.82019 -42.21469,-2.07245c-4.27441,-5.77136 -5.98541,-14.00989 -2.64203,-21.87109c4.15624,-9.77234 11.42113,-14.43262 22.04044,-14.48139c7.92517,-0.03638 15.10469,1.04871 20.92947,7.28961c5.62027,6.02179 2.53537,14.32373 -1.93901,17.81714c-5.77325,4.50739 -12.31903,5.64148 -19.73146,4.80164c7.63611,5.72424 15.80678,6.37622 26.66027,-4.98419c0.50688,6.51403 0.97314,12.5061 1.43942,18.4981c-0.27921,0.05976 -0.55843,0.11951 -0.83763,0.17927c-1.13697,-1.65168 -2.27393,-3.30341 -3.70478,-5.17664m-26.53115,-22.39563c3.83767,-2.51666 5.28511,-5.59461 2.34112,-9.63642c-4.66801,1.61945 -9.58969,2.92298 -11.63531,9.766c3.19099,0 5.85246,0 9.29419,-0.12958z"
      style=""
    />
    <path
      id="svg_34"
      d="m534.89966,198.04039c16.32647,5.66602 32.29584,11.16855 48.14667,16.99368c4.64129,1.70571 5.82153,-1.06816 6.8955,-4.23959c2.86518,-8.46063 5.51777,-16.99317 8.37128,-25.45789c5.9671,-17.70114 12.17481,-35.32383 17.88361,-53.10719c1.17346,-3.65533 0.8482,-7.87726 0.76977,-11.82924c-0.12097,-6.09733 -1.065,-12.20446 -0.82525,-18.27447c0.18707,-4.73783 -1.70551,-6.83342 -5.909,-8.11002c-5.89942,-1.79166 -11.73731,-3.83173 -17.46307,-6.11287c-1.21131,-0.48258 -1.82563,-2.46388 -2.71497,-3.75464c1.29504,-0.71364 2.87897,-2.31436 3.83972,-2.00149c8.16418,2.65852 16.32062,5.41529 24.21985,8.7564c1.80768,0.76458 3.47803,3.80324 3.72595,5.96562c1.0296,8.98043 1.39124,18.03484 2.18793,27.0453c0.81647,9.23462 -3.62781,17.18605 -6.3169,25.46345c-7.22485,22.239 -15.10589,44.26494 -22.73919,66.37103c-1.65528,4.79378 -6.88489,7.52352 -11.85242,5.81234c-21.64404,-7.45578 -43.25622,-15.00473 -64.84576,-22.61696c-4.43885,-1.56508 -7.03101,-6.06386 -6.18134,-10.93801c0.52228,-2.99646 1.63049,-5.97062 2.98358,-8.70329c0.54352,-1.09776 2.44794,-1.52177 3.73291,-2.25244c0.72827,1.28136 1.94019,2.5204 2.05701,3.85529c0.13299,1.51959 -0.40497,3.30094 -1.18665,4.66082c-2.7265,4.74332 -0.768,7.10416 3.81354,8.55544c3.70593,1.17393 7.3393,2.57693 11.40723,3.91873z"
      style=""
    />
    <path
      id="svg_35"
      d="m278.24612,152.32603c-2.78061,0.39585 -5.25009,0.75092 -7.70504,0.66903c-11.96393,-0.39913 -23.08083,2.40528 -33.02336,9.06839c-12.62264,8.45921 -18.77753,21.10501 -21.34983,35.54907c-0.83221,4.67306 -3.25946,6.9414 -7.21329,7.23572c-4.5326,0.3374 -9.1206,-1.83342 -9.70014,-6.46741c-0.65862,-5.26636 -0.0918,-10.97514 1.25416,-16.15042c4.59096,-17.65228 15.24277,-31.02751 31.05122,-39.93758c7.9769,-4.49599 16.78342,-7.14766 26.12098,-7.28119c4.67984,-0.06692 9.36193,0.03111 14.04208,-0.02348c4.56711,-0.05327 7.34165,2.62364 9.20447,6.2896c2.08194,4.09723 1.22433,7.81576 -2.68125,11.04827m-18.88235,-10.32615c-7.49768,2.00891 -15.56833,2.86687 -22.37834,6.25709c-16.09334,8.01169 -25.95841,21.69635 -30.47986,38.99553c-0.85329,3.26477 -3.96072,7.51662 1.54645,10.80234c0.67823,-1.5164 1.6989,-2.88431 1.88434,-4.35736c1.50204,-11.93125 6.4698,-22.3246 14.79046,-30.7793c12.72652,-12.93153 28.70073,-17.69639 46.57219,-16.85313c1.2171,0.0574 2.44943,-0.2077 4.18158,-0.37044c-3.28018,-3.96571 -8.3414,-4.98819 -16.11682,-3.69473z"
      fill="#666666"
    />
    <path
      id="svg_36"
      d="m331.02203,841.3241c-1.25192,10.30297 -2.47903,20.16504 -3.72216,30.02514c-0.75373,5.97809 -1.43894,11.96704 -2.33619,17.92389c-0.50579,3.3584 1.27884,4.80243 4.03159,5.69092c1.48062,0.47791 2.97351,0.91785 5.83917,1.7984c-12.69003,0.55536 -23.93924,1.04761 -35.30645,1.54505c0.15206,-0.67542 0.1575,-1.16034 0.28369,-1.19416c7.04235,-1.88568 8.85519,-6.41064 8.36904,-13.49359c-0.70517,-10.27417 -0.18005,-20.63269 -0.18096,-30.95526c-0.00058,-6.54584 -0.00168,-6.54376 -6.53373,-6.6684c-0.6611,-0.01263 -1.32135,-0.06952 -2.28283,-1.21679c10.7269,-3.04145 21.45382,-6.08283 33.21704,-9.41809c-0.62741,2.54693 -0.99378,4.03399 -1.37821,5.96289z"
      style=""
    />
    <path
      id="svg_37"
      d="m1001.90698,837c6.19592,0.43176 11.90497,0.86365 18.84424,1.38855c-5.89496,1.1452 -10.61304,2.06177 -15.36243,2.9845c-2.35601,11.14514 -4.71789,22.31817 -7.10846,33.62683c3.03046,1.61944 5.93451,3.17132 8.8385,4.7232c-0.08111,0.34876 -0.16223,0.69757 -0.24334,1.04633c-10.8736,0 -21.74719,0 -32.59595,0c-0.04492,0.10498 0.03894,-0.71625 0.42291,-0.89594c8.29883,-3.88159 5.27912,-10.81561 4.67182,-17.09722c-0.45685,-4.7251 -1.41065,-9.46839 -1.23468,-14.16956c0.1748,-4.67017 -1.23444,-7.45282 -5.72931,-8.89026c-2.07196,-0.66266 -3.92249,-2.01776 -5.23175,-2.71643c11.03192,0 22.63672,0 34.72845,0z"
      style=""
    />
    <path
      id="svg_38"
      d="m246.87512,209.94934c-5.61403,-0.94794 -9.81607,-3.50632 -10.30322,-9.09186c-0.27771,-3.18426 0.6777,-6.73358 1.95022,-9.75056c5.25324,-12.45488 18.01615,-18.48999 30.31071,-18.05127c5.053,0.18031 9.46704,6.01642 9.16476,11.49586c-0.26123,4.73511 -3.4216,7.24636 -9.09335,7.4675c-7.05283,0.27501 -11.49796,4.36289 -13.96901,10.54625c-1.51099,3.78101 -3.65734,6.41445 -8.06011,7.38408m15.66623,-24.07828c2.83606,-0.63635 5.67215,-1.2727 8.50824,-1.90907c0.07736,-0.56322 0.15473,-1.12643 0.23212,-1.68967c-1.74564,-0.75495 -3.51364,-2.205 -5.23322,-2.14967c-9.6286,0.30977 -19.46423,8.11209 -21.94916,17.30704c-0.35848,1.3265 0.53988,2.99266 0.85659,4.50163c1.02952,-0.97395 2.47615,-1.75853 3.01874,-2.95357c2.83584,-6.24574 7.00267,-10.95558 14.56669,-13.10669z"
      fill="#666666"
    />
    <path
      id="svg_39"
      d="m842.9126,505c4.84894,0.97647 9.33337,1.62976 13.53186,3.0997c1.52929,0.5354 3.17907,2.96359 3.28717,4.62497c0.08911,1.37006 -1.71112,3.5448 -3.1958,4.22607c-10.49152,4.81458 -21.18665,4.59174 -31.62842,-0.05761c-4.30756,-1.91797 -4.15961,-6.46695 -0.0694,-8.85556c5.47089,-3.19498 11.51612,-3.26709 18.07459,-3.03757z"
      style=""
    />
    <path
      id="svg_40"
      d="m571.70416,164.70319c-3.21734,6.64212 -6.2174,12.97009 -9.21026,19.30145c-0.96222,2.03552 -2.14893,4.41978 -4.60828,2.20041c-1.11896,-1.00986 -1.80078,-3.8046 -1.2232,-5.17556c2.96862,-7.04614 6.38146,-13.90679 9.69537,-20.80523c3.81097,-7.93318 7.68164,-15.83769 11.52398,-23.75585c0.4961,-1.02235 0.719,-2.4225 1.52894,-2.98783c1.11224,-0.77623 3.29272,-1.67124 3.88769,-1.17182c1.01978,0.85611 1.85584,2.92603 1.54114,4.17766c-0.74359,2.95833 -2.08069,5.79652 -3.40821,8.57321c-3.09686,6.47803 -6.32946,12.89127 -9.72717,19.64356z"
      style=""
    />
    <path
      id="svg_41"
      d="m728.53717,560.01239c5.05682,0.6441 9.86133,0.74133 14.2019,2.20978c1.90711,0.6452 3.92713,4.07794 3.93909,6.25567c0.01026,1.87708 -2.39087,4.40693 -4.36273,5.53437c-5.72339,3.27258 -11.97797,2.67853 -17.92621,0.62573c-2.81769,-0.97241 -6.33765,-2.88818 -5.19238,-6.62195c0.78534,-2.56048 3.28619,-4.68963 5.30475,-6.73016c0.80316,-0.81189 2.37359,-0.86463 4.03558,-1.27344z"
      style=""
    />
    <path
      id="svg_42"
      d="m975.87122,886.64014c8.60174,-4.1363 17.21569,-3.17994 25.69012,-1.21259c1.77203,0.41144 3.89716,3.16193 4.14044,5.05542c0.18872,1.46814 -1.95721,3.98023 -3.66119,4.82178c-8.49488,4.19525 -23.3938,2.03113 -29.26422,-4.22791c0.8952,-1.3125 1.86297,-2.73126 3.09485,-4.4367z"
      style=""
    />
    <path
      id="svg_43"
      d="m927.9386,884c4.36975,0.85535 8.4223,1.29761 12.12421,2.67944c3.88623,1.45038 4.08868,5.57642 0.7948,7.92676c-5.26606,3.75781 -24.08155,3.25311 -28.61261,-1.05115c-2.19159,-2.0819 -2.42499,-5.29541 0.72503,-6.38836c4.64002,-1.61005 9.64679,-2.16333 14.96857,-3.16669z"
      style=""
    />
    <path
      id="svg_44"
      d="m874.19067,851c-3.98925,-0.99249 -7.65387,-1.65289 -10.9953,-3.07355c-3.16424,-1.34521 -3.31457,-5.33203 -0.3573,-6.8526c8.40027,-4.31903 17.14472,-4.49328 25.83106,-1.02856c1.73596,0.69238 4.20514,3.05438 4.00604,4.26263c-0.29352,1.78137 -2.43213,4.14563 -4.21997,4.61914c-4.46906,1.18372 -9.18304,1.44287 -14.26453,2.07294z"
      style=""
    />
    <path
      id="svg_45"
      d="m592.73944,167.2478c4.03955,4.85179 4.45905,10.28205 1.34662,14.13002c-3.31445,4.0978 -7.1922,4.73604 -12.2356,2.01383c-4.80096,-2.59133 -6.64685,-10.16074 -3.63818,-14.91947c3.34149,-5.28537 8.67816,-5.84619 14.52716,-1.22438m-4.35333,4.69379c-2.14185,-1.60974 -4.00897,-1.52138 -4.93201,1.2128c-1.19433,3.53772 1.12226,4.86113 5.44379,6.42929c0,-2.85129 0,-4.9583 -0.51178,-7.64209z"
      fill="#666666"
    />
    <path
      id="svg_46"
      d="m545.14917,140.67215c2.33404,-4.71999 5.7699,-7.95276 10.67096,-6.43643c3.03027,0.9375 6.72333,3.66763 7.67682,6.43452c1.33734,3.88121 1.7887,8.71616 -2.69019,12.14279c-3.34185,2.55666 -7.22021,2.62102 -9.92425,0.80338c-2.67078,-1.79532 -4.13233,-5.54004 -5.7876,-8.61112c-0.5528,-1.0256 -0.06641,-2.61131 0.05426,-4.33314m6.93487,0.92224c0.35084,2.0004 0.4997,4.08049 1.2298,5.93126c0.13922,0.35263 3.68793,0.00993 3.76032,-0.37242c0.32861,-1.73487 0.43945,-3.83582 -0.3194,-5.32036c-0.40399,-0.79036 -2.73749,-0.59439 -4.67072,-0.23848z"
      fill="#666666"
    />
    <path
      id="svg_47"
      d="m268.00272,212.4097c2.11618,-5.32768 5.92984,-6.98422 11.259,-5.30976c3.71561,1.16745 7.3382,7.09501 6.67975,10.92983c-0.82282,4.79208 -3.89722,7.16458 -9.03144,6.96957c-4.77392,-0.1813 -8.61529,-3.91319 -8.89871,-8.68939c-0.0686,-1.15617 -0.01053,-2.31988 -0.0086,-3.90025z"
      fill="#666666"
    />
    <path
      id="svg_48"
      d="m624.83215,31.5625c-13.84869,0.05053 -27.8294,-0.25943 -42.27185,-0.60267c3.2284,-8.15619 7.39643,-15.99211 15.9281,-20.03078c10.995,-5.20473 20.72785,-1.22386 23.54016,10.48924c0.78894,3.28563 1.77564,6.52378 2.80359,10.14421z"
      style="fill: rgba(255, 255, 255, 0)"
    />
    <path
      id="svg_49"
      d="m613.98499,490.70892c-12.94025,-14.38086 -36.4137,-11.96701 -51.53107,-1.64288c-3.47174,2.37094 -6.88062,4.83389 -10.74762,7.25855c-0.54901,-0.12943 -0.66876,-0.26294 -0.78857,-0.39643c2.359,-5.1001 4.71807,-10.20022 7.33282,-15.85315c-13.43463,1.56488 -26.4231,3.07779 -39.81622,4.68292c7.21344,-21.04791 14.83038,-42.18847 22.45636,-63.32571c0.22186,-0.61499 0.74102,-1.18103 0.78387,-1.79349c0.539,-7.70312 6.0722,-8.12655 11.97138,-8.71322c10.42382,-1.03672 20.79351,-2.60682 31.20221,-3.8122c9.78247,-1.13287 19.59405,-2.01245 29.37805,-3.13302c10.08801,-1.15534 20.1513,-2.52662 30.23809,-3.69361c10.25446,-1.1864 20.52448,-2.23886 31.80335,-3.45993c-21.00995,31.63953 -41.56854,62.59931 -62.28265,93.88217z"
      style="fill: rgba(255, 255, 255, 0)"
    />
    <path
      id="svg_50"
      d="m560.01941,571.67615c-9.94598,-8.37842 -9.45831,-26.0777 0.79419,-33.94904c4.60583,-3.53613 12.69891,-2.15191 16.10956,2.76196c0.63476,0.91456 1.23864,1.85071 1.9328,3.10737c-6.17829,9.47461 -12.43244,18.61865 -18.83655,28.07971z"
      style="fill: rgba(255, 255, 255, 0)"
    />
    <path
      id="svg_51"
      d="m131,603c0.00001,-10.14984 0.06457,-19.80023 -0.02904,-29.44916c-0.04246,-4.37774 2.10614,-7.39795 5.66451,-9.35077c3.63336,-1.99395 7.46653,-1.00695 10.27875,1.48639c1.6797,1.4892 2.94455,4.39417 2.95831,6.67151c0.18899,31.27759 0.12898,62.5567 0.1261,93.83545c-0.00054,5.83527 -2.81102,8.72156 -8.54889,8.80658c-6.20558,0.09186 -10.40358,-3.43848 -10.42304,-9.10889c-0.06852,-19.96496 -0.02667,-39.93029 -0.0267,-59.89544c0,-0.83191 0,-1.66376 0,-2.99567z"
      style="fill: rgba(255, 255, 255, 0)"
    />
    <path
      id="svg_52"
      d="m150,528.30298c-0.54231,3.90668 0.01266,8.18567 -1.83993,10.66748c-4.86939,6.52319 -13.31951,4.80707 -16.44091,-2.75293c-2.97731,-7.211 -0.04387,-14.20099 6.8947,-16.4289c5.6863,-1.8258 11.05966,1.98145 11.38614,8.51435z"
      style="fill: rgba(255, 255, 255, 0)"
    />
    <path
      id="svg_53"
      d="m269.99725,639.80335c1.30619,-12.54242 2.61011,-24.62281 4.00455,-37.54206c10.59555,7.94507 17.14465,17.51782 16.74838,29.71533c-0.50335,15.49384 -10.32013,25.53974 -24.06405,33.92072c1.20358,-9.32373 2.25619,-17.47778 3.31112,-26.09399z"
      style="fill: rgba(255, 255, 255, 0)"
    />
    <path
      id="svg_54"
      d="m534.8822,646.12225c4.42578,5.73877 8.60108,11.22687 12.74658,16.67579c-8.16967,6.6762 -16.15252,6.74755 -22.71344,0.85137c-7.21576,-6.48468 -8.92126,-16.18756 -3.80438,-23.57074c0.73145,-1.05554 3.63623,-1.8656 4.59613,-1.27166c3.2049,1.98309 5.98297,4.65594 9.17511,7.31524z"
      fill="#CE407E"
    />
    <path
      id="svg_55"
      d="m444.24118,495.02258c4.20123,-0.83865 4.99378,2.44583 5.45251,4.56745c2.11143,9.76495 -2.93353,18.7268 -13.71173,18.45282c-8.15383,-0.20722 -8.15823,-0.03388 -14.73568,-4.3313c4.6105,-9.75916 12.36139,-15.69351 22.9949,-18.68897z"
      style="fill: rgba(255, 255, 255, 0)"
    />
    <path
      id="svg_56"
      d="m385.72797,642.776c4.84759,-6.39423 10.94564,-10.2121 18.2619,-12.36053c2.97208,-0.87274 4.86194,-0.56348 6.06045,2.60553c3.58295,9.47375 -1.71045,20.27954 -12.63247,20.02411c-8.54914,-0.20002 -8.55335,-0.02027 -15.26938,-4.39252c1.10254,-1.86707 2.21075,-3.74365 3.5795,-5.87659z"
      style="fill: rgba(255, 255, 255, 0)"
    />
    <path
      id="svg_57"
      d="m551.43579,496.54596c-0.28204,0.54248 -0.7229,0.86771 -1.16369,1.19293c0.03027,-0.53473 0.06048,-1.06943 0.36816,-1.70746c0.39728,0.03022 0.51703,0.16373 0.79553,0.51453z"
      fill="#FFFFFF"
    />
    <path
      id="svg_58"
      d="m874.28748,228.78387c-12.79224,-11.65287 -25.32563,-23.06057 -37.91034,-34.51504c25.52105,-28.37242 51.1286,-56.84099 76.88855,-85.47894c20.906,18.7673 41.48614,37.24205 62.42675,56.0404c-25.73346,28.66191 -51.04412,56.85297 -76.78466,85.52286c-8.09473,-7.0855 -16.22809,-14.2048 -24.6203,-21.56928z"
      style=""
    />
    <path
      id="svg_59"
      d="m921.04468,106.00946c-1.20484,-0.83774 -2.06256,-1.61117 -2.90875,-2.37419c5.9729,-8.40826 15.6665,-8.51964 23.24713,-1.0629c12.80084,12.5918 26.37359,24.427 40.00555,36.13349c6.42975,5.52157 5.91241,15.71336 -1.4361,20.37588c-19.47387,-17.62736 -39.01733,-35.31768 -58.90783,-53.07228m36.97534,26.94806c3.29529,0.32339 6.51544,-0.58446 4.5354,-4.35991c-1.63202,-3.11191 -4.1806,-7.05288 -7.39661,-5.90091c-2.69464,-2.0759 -4.28137,-3.60723 -6.16674,-4.52516c-0.44965,-0.21892 -1.89643,1.61017 -2.88465,2.49726c1.76624,1.54842 3.53247,3.09685 4.36774,3.82913c2.70935,3.28338 4.74841,5.75445 7.54486,8.45959z"
      style=""
    />
    <path
      id="svg_60"
      d="m866.26331,252.76242c-11.81659,-10.80411 -23.0763,-21.71963 -35.0611,-31.77057c-6.64868,-5.57588 -6.55719,-15.51707 0.53631,-20.98636c20.50013,18.41893 41.09937,36.9269 61.70813,55.44338c-6.80694,9.01839 -12.893,9.5782 -21.6123,1.90605c-1.71686,-1.51065 -3.54187,-2.89836 -5.57104,-4.5925m0.60467,-13.22728c-4.5932,-4.65552 -9.09991,-9.40445 -13.893,-13.8441c-0.57587,-0.53342 -3.4679,0.20402 -3.93189,1.07446c-0.65796,1.23429 -0.71423,3.7544 0.1225,4.64821c3.12714,3.3404 6.51141,6.539 10.2298,9.18599c1.93139,1.37489 4.92248,3.39388 7.47259,-1.06456z"
      style=""
    />
    <path
      id="svg_61"
      d="m817.11487,575.09961c-7.66681,-4.04742 -5.96063,-11.29883 -6.14203,-17.98071c-0.21881,-8.06122 -0.71375,-16.11475 -0.94251,-24.17585c-0.11999,-4.22796 3.60602,-6.8684 7.77527,-5.53711c3.36316,1.07386 6.63227,2.44221 10.37525,3.8415c-0.97596,10.42395 -1.9469,20.802 -2.92072,31.17975c-0.07617,0.81207 -0.37671,1.66223 -0.22723,2.42706c1.16766,5.97436 -1.41913,9.198 -7.62805,10.14795c-0.38062,0.01129 -0.32135,0.06994 -0.28998,0.09741z"
      style="fill: rgba(255, 255, 255, 0)"
    />
    <path
      id="svg_62"
      d="m783.59131,537.23199c4.27008,4.17054 8.20673,8.15674 12.10748,12.10663c-5.3479,5.60578 -10.44897,3.07941 -13.47851,-0.61132c-3.21857,-3.92109 -2.83246,-8.37403 1.37103,-11.49531z"
      style="fill: rgba(255, 255, 255, 0)"
    />
    <path
      id="svg_63"
      d="m795.5647,567.45349c0.2821,-0.54254 0.72302,-0.86755 1.16388,-1.19263c-0.03028,0.53485 -0.06055,1.06971 -0.36835,1.70783c-0.39734,-0.0304 -0.51709,-0.16406 -0.79553,-0.5152z"
      fill="#FFFFFF"
    />
    <path
      id="svg_64"
      d="m771,878.28479c0.83209,7.43195 -0.44312,13.49982 -8.42297,17.11456c-3.48652,-5.6098 -0.50037,-12.36957 -1.92456,-19.07922c3.58343,-0.698 6.8294,-1.33032 10.34753,-2.01556c0,1.22753 0,2.37823 0,3.98022z"
      style="fill: rgba(255, 255, 255, 0)"
    />
    <path
      id="svg_65"
      d="m857.03259,896.03699c-6.96106,-7.85999 -4.54565,-17.53998 -5.00561,-26.65656c-0.1673,-3.31634 -0.26825,-6.67554 0.10119,-9.95874c0.13575,-1.20599 1.5373,-2.9574 2.67005,-3.24512c5.11541,-1.29919 11.77997,5.07081 11.2243,10.22754c-0.78772,7.31104 -1.54937,14.63501 -1.95087,21.97376c-0.2387,4.36475 -1.64337,7.22302 -6.73413,7.59503c-0.39184,-0.02154 -0.33319,0.03485 -0.30493,0.06409z"
      style="fill: rgba(255, 255, 255, 0)"
    />
    <path
      id="svg_66"
      d="m828.99475,873.94122c-3.1878,-3.32336 -2.26221,-6.49835 0.03357,-11.07025c3.69775,3.99512 7.03229,7.59784 10.28906,11.11658c-3.9132,4.59778 -7.08801,2.43335 -10.32263,-0.04633z"
      style="fill: rgba(255, 255, 255, 0)"
    />
    <path
      id="svg_67"
      d="m839.8977,859.12353c0.41645,0.36634 0.64972,0.93 0.88294,1.49366c-0.3371,-0.14313 -0.67419,-0.28626 -1.20258,-0.64923c-0.08203,-0.36225 0.02723,-0.5047 0.31964,-0.84443z"
      fill="#FFFFFF"
    />
    <path
      id="svg_68"
      d="m163.40549,852.922c4.21328,9.70141 0.91227,18.55743 -8.04584,22.67474c0.96716,-8.94116 1.93607,-17.8985 2.99538,-27.69147c1.73989,1.73932 3.25183,3.25074 5.05046,5.01673z"
      style="fill: rgba(255, 255, 255, 0)"
    />
    <path
      id="svg_69"
      d="m171.9474,167.01245c5.4328,-15.21614 13.2058,-28.57863 24.90209,-39.28177c14.44067,-13.21453 31.30241,-21.77519 50.95079,-23.59707c8.92534,-0.8276 17.99266,-0.22727 26.99122,-0.05148c1.37528,0.02686 2.72687,1.26477 4.08939,1.94257c-0.06155,0.44046 -0.12314,0.88092 -0.18472,1.32139c-1.80033,0.21797 -3.59735,0.59019 -5.40155,0.62904c-12.32218,0.26527 -24.62204,-0.607 -36.81284,2.89433c-23.57753,6.7717 -41.25122,20.89853 -53.30382,41.89617c-6.43069,11.20333 -10.63987,23.40679 -11.24838,36.57641c-0.05586,1.20877 -0.86818,2.3826 -2.59984,3.9605c-0.77211,-1.85697 -2.4592,-3.88073 -2.1564,-5.54175c1.24727,-6.84197 3.09869,-13.57381 4.77406,-20.74834z"
      style=""
    />
    <path
      id="svg_70"
      d="m450.43536,860.54645c-0.28219,0.54254 -0.72308,0.86761 -1.16394,1.19269c0.03028,-0.53479 0.06058,-1.06971 0.36835,-1.70783c0.39728,0.03034 0.51709,0.164 0.79559,0.51514z"
      fill="#FFFFFF"
    />
    <path
      id="svg_71"
      d="m555.4353,860.54651c-0.2821,0.54254 -0.72302,0.86755 -1.16388,1.19263c0.03028,-0.53485 0.06055,-1.06977 0.36835,-1.70789c0.39734,0.03046 0.51709,0.16412 0.79553,0.51526z"
      fill="#FFFFFF"
    />
    <path
      id="svg_72"
      d="m275.13715,865.64795c2.49563,3.02783 4.7387,5.77881 6.96362,8.50757c-3.04614,3.80365 -6.18466,3.0357 -9.05695,0.78851c-3.73776,-2.92432 -4.04953,-6.67023 -1.52499,-10.96228c1.08853,0.44934 2.22717,0.91937 3.61832,1.6662z"
      style="fill: rgba(255, 255, 255, 0)"
    />
    <path
      id="svg_73"
      d="m282.8978,859.12366c0.41641,0.36621 0.64968,0.92981 0.88296,1.49341c-0.33707,-0.14301 -0.67413,-0.28608 -1.20245,-0.64893c-0.08206,-0.36224 0.02713,-0.5047 0.31949,-0.84448z"
      fill="#FFFFFF"
    />
    <path
      id="svg_74"
      d="m513.66974,866.17554c2.33832,2.90124 4.39801,5.55261 6.36999,8.09106c-3.38922,4.27405 -6.98199,2.63831 -9.55853,0.29767c-3.08414,-2.80176 -3.68973,-6.68195 -0.75766,-10.67383c1.19766,0.66461 2.43265,1.34992 3.9462,2.2851z"
      style="fill: rgba(255, 255, 255, 0)"
    />
    <path
      id="svg_75"
      d="m520.89764,859.12353c0.41645,0.36634 0.64972,0.93 0.883,1.49366c-0.3371,-0.14319 -0.67419,-0.28632 -1.20258,-0.64929c-0.08203,-0.36219 0.02723,-0.50464 0.31958,-0.84437z"
      fill="#FFFFFF"
    />
    <path
      id="svg_76"
      d="m670.13715,865.64789c2.49554,3.02795 4.73858,5.77899 6.9635,8.50793c-3.04602,3.80304 -6.18561,3.03699 -9.0564,0.78791c-3.7323,-2.92383 -4.0293,-6.67298 -1.53564,-10.96607c1.09869,0.45349 2.23736,0.9234 3.62854,1.67023z"
      style="fill: rgba(255, 255, 255, 0)"
    />
    <path
      id="svg_77"
      d="m677.89764,859.12353c0.41645,0.36634 0.64972,0.93 0.883,1.49366c-0.3371,-0.14313 -0.67419,-0.28626 -1.20258,-0.64923c-0.08203,-0.36225 0.02723,-0.5047 0.31958,-0.84443z"
      fill="#FFFFFF"
    />
    <path
      id="svg_78"
      d="m215.8237,870.03345c-3.05159,0.06482 -5.71306,0.06482 -8.90405,0.06482c2.04562,-6.84302 6.9673,-8.14655 11.63531,-9.766c2.94399,4.04181 1.49655,7.11976 -2.73126,9.70118z"
      style="fill: rgba(255, 255, 255, 0)"
    />
    <path
      id="svg_79"
      d="m259.80951,141.99939c7.32968,-1.29297 12.3909,-0.27049 15.67108,3.69522c-1.73215,0.16274 -2.96448,0.42784 -4.18158,0.37044c-17.87146,-0.84326 -33.84567,3.9216 -46.57219,16.85313c-8.32066,8.4547 -13.28842,18.84805 -14.79046,30.7793c-0.18544,1.47305 -1.20611,2.84096 -1.88434,4.35736c-5.50717,-3.28572 -2.39974,-7.53757 -1.54645,-10.80234c4.52145,-17.29918 14.38652,-30.98384 30.47986,-38.99553c6.81001,-3.39022 14.88066,-4.24818 22.82408,-6.25758z"
      style=""
    />
    <path
      id="svg_80"
      d="m262.13709,185.92819c-7.15976,2.09398 -11.32659,6.80382 -14.16243,13.04956c-0.54259,1.19504 -1.98922,1.97962 -3.01873,2.95358c-0.31672,-1.50898 -1.21508,-3.17514 -0.8566,-4.50164c2.48493,-9.19495 12.32056,-16.99727 21.94916,-17.30704c1.71958,-0.05533 3.48758,1.39472 5.23322,2.14967c-0.07739,0.56324 -0.15476,1.12645 -0.23212,1.68967c-2.83609,0.63637 -5.67218,1.27272 -8.9125,1.9662z"
      style=""
    />
    <path
      id="svg_81"
      d="m588.64197,172.22998c0.25592,2.3954 0.25592,4.50241 0.25592,7.3537c-4.32153,-1.56816 -6.63812,-2.89157 -5.44379,-6.42929c0.92304,-2.73418 2.79016,-2.82254 5.18787,-0.92441z"
      style=""
    />
    <path
      id="svg_82"
      d="m552.31934,141.29182c1.69793,-0.05334 4.03143,-0.24931 4.43542,0.54105c0.75885,1.48454 0.64801,3.58549 0.3194,5.32036c-0.07239,0.38235 -3.6211,0.72505 -3.76032,0.37242c-0.7301,-1.85077 -0.87896,-3.93086 -0.9945,-6.23383z"
      style=""
    />
    <path
      id="svg_83"
      d="m957.64136,132.84049c-2.41779,-2.58811 -4.45685,-5.05918 -7.1662,-8.34256c-0.83527,-0.73228 -2.6015,-2.28071 -4.36774,-3.82912c0.98822,-0.8871 2.435,-2.71619 2.88465,-2.49727c1.88537,0.91793 3.4721,2.44926 6.16674,4.52516c3.21601,-1.15197 5.76459,2.789 7.39661,5.90091c1.98004,3.77545 -1.24011,4.6833 -4.91406,4.24288z"
      fill="#666666"
    />
    <path
      id="svg_84"
      d="m866.61707,239.83539c-2.2992,4.15819 -5.29029,2.1392 -7.22168,0.76431c-3.71839,-2.64699 -7.10266,-5.84559 -10.2298,-9.18599c-0.83673,-0.89381 -0.78046,-3.41392 -0.1225,-4.64821c0.46399,-0.87044 3.35602,-1.60788 3.93189,-1.07446c4.79309,4.43965 9.2998,9.18858 13.64209,14.14435z"
      fill="#666666"
    />
  </g>
</svg>
